<svg width="634" height="514" viewBox="0 0 634 514" fill="none" xmlns="http://www.w3.org/2000/svg">
<g clip-path="url(#clip0_69_84)">
<path d="M360.791 469.217C363.052 469.078 365.421 469.547 367.619 470.129C371.204 471.117 374.769 472.148 377.943 473.769C380.191 474.915 383.852 477.447 383.155 479.536C382.522 480.454 381.147 480.435 380.191 480.891C377.031 481.923 380.406 487.931 380.59 490.406C381.876 496.015 376.239 495.23 371.666 494.084C369.962 493.628 368.252 493.033 366.821 491.995C363.35 489.532 361.551 483.949 359.106 479.884C356.737 475.89 353.279 469.914 360.69 469.23H360.797L360.791 469.217Z" fill="#ED79B7"/>
<path d="M516.593 490.108C520.311 490.646 516.7 498.414 515.611 500.554C514.18 503.39 511.703 505.555 508.739 506.688C503.805 508.841 492.557 508.606 496.68 502.605C499.467 498.693 511.912 489.944 516.517 490.102H516.593V490.108Z" fill="#ED79B7"/>
<path d="M415.051 512.747C410.422 515.247 393.802 513.563 388.735 511.645C387.532 511.253 385.41 509.898 387.373 509.075C388.957 508.296 394.024 508.499 397.33 508.594C402.606 508.79 407.97 508.163 413.082 509.239C414.766 509.594 417.712 511.164 415.127 512.709L415.051 512.753V512.747Z" fill="#ED79B7"/>
<path d="M147.27 426.473C153.522 427.828 150.627 436.526 144.997 435.323C142.387 434.868 139.569 432.202 139.265 430.177C138.942 426.568 144.522 425.865 147.144 426.448L147.264 426.473H147.27Z" fill="#ED79B7"/>
<path d="M161.825 430.373C160.394 430.575 158.418 429.582 158.373 427.999C158.563 425.79 161.825 425.96 162.997 427.36C164.099 428.455 163.51 430.177 161.939 430.354L161.825 430.373Z" fill="#ED79B7"/>
<path d="M154.358 390.952C151.191 390.091 147.739 389.952 144.655 388.711C140.652 387.236 137.523 384.121 133.71 382.336C131.101 381.057 128.162 380.507 125.419 379.563C121.226 378.114 117.458 375.284 114.646 371.808C112.682 369.308 110.478 366.054 107.66 365.066C106.228 364.497 104.601 364.224 103.074 363.794C98.4062 362.61 93.2949 358.305 87.9747 356.33C84.1618 354.849 80.0956 354.501 76.2194 353.298C72.3115 352.133 68.8406 349.721 65.1038 347.885C62.0573 346.347 58.8335 345.182 55.73 343.783C49.2063 340.637 43.4996 337.63 36.0196 339.978C29.4642 341.795 28.0328 346.41 26.9244 352.386C26.1201 356.362 24.638 360.173 23.6119 364.11C21.2811 374.581 18.754 380.032 11.2233 388.053C7.99311 391.712 3.81289 395.219 3.10986 400.296C2.69817 403.601 3.93957 406.88 3.8889 410.254C4.08524 414.407 1.71645 418.18 0.335709 421.89C-1.05136 425.524 2.17881 427.113 5.08596 428.132C9.51953 429.866 14.6561 431.075 19.191 432.975C29.5276 436.919 25.0623 453.201 33.2138 452.549C35.4369 452.315 37.945 451.378 40.2568 450.935C45.5454 449.89 51.3977 450.377 56.7433 451.479C60.9742 452.422 65.2241 453.726 69.474 454.701C72.5522 455.417 75.6937 455.607 78.7085 454.549C81.5903 453.6 84.2061 451.84 86.9549 450.561C90.2801 448.972 93.5293 448.377 96.4618 446.566C98.7356 445.212 100.8 443.521 102.96 441.97C105.24 440.223 108.673 438.381 109.572 435.893C110.364 433.601 109.553 430.955 109.465 428.543C108.717 418.788 121.1 416.173 126.99 409.811C128.953 407.988 130.733 406.082 133.324 405.272C138.093 403.879 145.193 404.949 150.836 402.98C153.591 402.119 156.011 400.663 157.474 398.777C160.083 395.529 158.671 392.047 154.472 390.984L154.37 390.952H154.358Z" fill="#ED79B7"/>
<path d="M195.096 267.942C197.414 267.772 199.688 267.664 201.778 268.272C202.88 268.576 203.938 269.082 204.97 269.69C207.529 271.044 209.214 272.982 211.342 271.874C212.811 270.975 214.255 268.322 216.371 266.138C217.701 264.746 219.208 263.454 220.285 261.859C221.381 260.27 221.97 258.402 222.641 256.611C223.534 254.11 224.738 251.742 225.726 249.312C226.492 247.514 226.878 245.285 225.688 243.627C221.862 238.803 214.369 241.525 209.891 244.12C203.596 247.729 199.295 253.863 193.709 258.459C191.65 260.27 188.699 261.941 187.388 264.29C185.633 268.278 192.353 268.272 194.976 267.955H195.096V267.942Z" fill="#ED79B7"/>
<path d="M626.748 419.079C624.297 415.952 621.605 413.097 619.3 409.9C614.1 400.467 616.209 401.1 606.943 395.643C602.895 390.351 620.674 382.406 624.436 381.798C626.482 381.425 628.686 381.564 630.681 381.178C637.807 378.722 627.388 369.397 623.562 368.168C613.416 363.015 602.211 367.231 591.469 365.813C586.567 365.522 581.614 366.51 576.731 366.921C557.844 369.08 545.303 350.082 550.484 333.382C554.627 325.26 566.68 329.697 562.436 316.321C558.8 306.521 556.381 301.912 562.24 292.613C564.108 289.137 565.691 285.687 568.105 282.908C570.492 279.73 576.921 276.831 573.849 272.241C570.017 267.936 564.076 261.188 569.086 255.718C574.673 251.394 584.154 264.328 582.596 245.893C579.163 230.991 588.144 224.875 585.307 220.083C581.595 216.595 574.996 216.259 570.081 217.095C562.398 218.842 555.304 224.844 547.153 222.375C540.477 220.469 533.675 213.658 535.17 206.232C536.012 201.978 539.565 198.103 540.312 193.691C542.08 186.442 533.681 177.972 540.053 171.838C542.814 169.369 547.431 169.185 549.75 166.634C552.08 162.772 549.11 158.752 548.28 154.201C546.988 149.18 546.519 143.926 545.063 138.95C542.46 129.075 534.517 122.143 527.797 114.951C525.46 112.431 523.186 109.842 520.501 107.683C517.366 105.069 513.591 103.113 511.336 100.08C507.732 95.2818 509.005 88.6157 507.859 83.0574C506.991 78.493 504.496 75.8532 502.469 71.3015C500.252 66.7498 499.809 61.2295 497.725 56.7221C491.132 44.8079 471.706 53.9493 470.199 65.0089C469.971 67.7753 471.668 70.219 472.308 72.8082C473.34 80.5568 460.534 75.9165 456.011 76.961C453.465 76.9484 449.279 79.3287 451.742 82.0572C453.294 83.6018 456.569 84.9376 458.076 86.3936C459.932 88.6283 456.341 89.8121 454.061 90.1223C449.925 90.6731 445.396 89.3943 441.843 87.2103C434.933 83.4626 434.16 74.3275 429.91 68.7439C427.624 65.7685 423.76 64.0023 421.335 61.3055C417.04 55.5003 428.042 58.5137 430.525 59.2544C439.36 61.1662 449.956 63.3123 458.469 59.5899C465.468 56.3866 470.56 45.3587 462.731 40.2689C455.973 36.1034 447.632 35.1031 440.348 32.1024C433.704 29.2473 426.687 27.9432 419.504 27.5254C414.52 26.9937 409.586 25.2781 404.493 25.8858C396.944 27.019 385.657 34.8752 386.335 42.7125C387 46.5995 386.328 51.721 387.601 55.3737C388.874 58.7416 394.233 61.1599 395.202 64.8696C395.968 68.1045 396.855 70.8963 397.735 74.3655C398.597 77.5498 400.345 80.6201 400.902 83.8614C402.657 91.1036 406.938 98.3458 410.751 104.562C415.451 110.152 418.123 117.034 414.722 124.048C411.745 132.012 403.163 137.45 400.775 145.686C400.028 150.795 407.375 151.023 410.276 152.548C416.819 156.081 396.659 154.979 395.778 172.699C392.909 199.87 415.546 202.528 392.409 227.952C378.956 246.412 350.872 204.143 348.339 223.768C348.187 224.932 345.172 228.199 343.272 230.731C334.677 242.183 369.322 270.215 371.97 274.216C375.346 279.325 384.808 273.146 391.408 273.779C397.767 273.285 403.923 272.368 410.206 273.431C415.229 274.343 420.353 274.343 425.439 274.457C437.986 275.343 438.524 276.704 445.244 268.715C447.632 266.765 449.279 263.954 452.845 262.384C456.151 260.991 458.83 260.004 462.345 259.219C469.806 257.212 474.354 261.713 479.148 266.284C484.279 271.399 491.233 273.501 497.902 275.754C502.697 277.584 506.883 280.186 511.748 280.642C519.114 280.952 530.755 279.065 531.819 289.118C532.212 293.968 534.752 300.184 532.465 304.4C530.92 307.775 522.059 312.2 525.986 316.106C527.246 317.169 530.077 316.751 530.508 318.562C530.552 319.86 528.259 322.392 527.113 324.835C524.25 332.344 527.759 338.408 520.779 345.309C518.702 347.676 516.796 349.202 517.404 350.753C524.58 358.495 539.97 355.184 548.369 366.067C555.57 375.404 562.17 371.182 570.138 375.797C581.564 385.09 569.979 399.6 559.427 403.829C552.283 407.412 544.676 406.405 536.81 406.836C528.937 407.462 521.052 408.861 513.185 407.342C497.269 403.784 488.547 407.95 474.829 415.046C461.389 419.37 439.43 424.872 429.138 412.337C423.304 404.69 427.808 395.333 430.461 387.42C432.045 382.355 431.684 376.588 434.623 372.138C443.376 361.028 431.088 366.143 429.043 360.591C428.878 356.362 431.456 351.316 434.439 348.335C437.872 345.448 440.45 343.834 437.669 339.934C432.494 332.084 425.401 326.089 417.116 321.702C413.835 319.79 410.428 317.752 406.583 317.384C398.103 316.58 391.49 323.544 384.042 326.5C377.259 329.248 370.051 327.665 366.086 320.632C361.633 310.3 354.622 307.559 343.918 307.971C338.851 307.888 332.144 301.153 327.451 302.273C321.883 304.039 306.245 309.383 304.016 314.934C303.091 317.283 306.626 326.88 305.916 329.495C303.674 336.952 302.857 343.859 295.852 347.575C290.665 350.114 282.412 343.72 272.348 355.45C264.747 364.313 273.45 365.972 281.437 374.455C285.129 379.931 287.555 386.489 292.514 391.098C297.638 396.371 303.832 398.213 310.337 401.999C316.601 405.861 322.821 410.59 327.989 415.787C335.431 422.282 333.867 428.816 334.076 437.444C335.627 448.371 342.753 460.222 352.532 465.615C358.207 468.211 365.199 467.692 371.286 469.414C376.872 470.49 381.952 474.307 387.544 474.82C394.853 475.048 393.105 466.413 389.66 462.735C385.898 457.379 379.171 455.195 375.143 450.137C372.971 447.63 371.305 441.388 375.567 440.287C378.487 439.856 381.673 441.483 384.656 441.065C389.28 440.059 388.938 432.968 394.176 432.019C401.656 429.898 410.13 433.469 417.731 431.715C426.04 429.005 431.551 423.574 441.343 425.213C457.36 426.638 442.223 434.899 435.212 435.804C429.024 437.115 421.886 435.209 416.211 438.425C410.111 443.034 412.075 452.935 417.332 457.588C420.904 460.671 416.603 464.349 417.971 467.306C419.099 468.85 420.904 469.736 422.367 471.047C426.123 473.668 426.99 478.504 429.562 482.024C435.68 488.057 437.694 484.335 438.315 494.742C439.886 500.731 446.156 489.095 450.526 490.786C454.523 491.001 459.748 494.008 464.258 493.046C472.055 492.216 472.422 478.846 481.371 481.435C487.477 483.018 494.102 488.614 501.107 487.937C511.57 486.804 513.546 476.871 528.215 473.408C531.135 472.661 537.165 467.609 539.109 471.3C539.806 473.294 538.754 477.295 539.654 479.34C541.047 480.644 542.757 478.017 543.726 477.086C550.801 464.381 564.507 465.818 576.44 461.437C581.095 459.639 585.174 456.74 589.335 454.037C595.928 449.725 603.136 446.358 609.577 441.825C622.707 429.892 645.755 441.135 626.818 419.168L626.742 419.073L626.748 419.079Z" fill="#ED79B7"/>
<path d="M114.791 204.25C108.546 200.699 108.743 198.432 111.454 192.323C114.456 185.069 108.534 185.993 103.929 189.19C102.282 190.234 100.617 191.304 98.7039 191.76C94.4287 192.849 88.893 191.564 85.3969 194.773C78.9935 201.743 94.4413 208.39 79.1455 217.139C76.9414 218.443 74.2496 220.311 74.0343 222.989C73.8316 224.996 74.9843 227.002 76.5424 228.262C81.907 232.447 91.0718 229.06 98.6659 229.319C104.132 229.383 110.256 229.845 113.55 224.73C114.734 223.052 115.589 221.14 116.318 219.222C118.319 213.702 120.219 207.612 114.874 204.301L114.791 204.244V204.25Z" fill="#ED79B7"/>
<path d="M126.116 184.594C125.109 183.347 125.54 181.017 125.356 179.219C125.096 175.142 124.647 171.838 127.402 168.33C132.583 161.076 140.113 148.99 150.133 149.725C152.667 149.889 158.734 151.2 156.904 154.745C156.055 156.429 153.585 158.638 153.23 160.417C152.679 165.767 163.548 164.488 164.84 168.995C165.689 172.578 161.382 176.142 159.159 178.782C156.784 181.498 155.346 184.473 155.194 188.012C155.092 191.507 155.872 194.976 156.48 198.394C157.341 202.516 158.247 206.7 160.311 210.296C162.072 213.411 164.72 216.158 165.79 219.615C166.867 223.261 167.12 227.243 166.715 231.029C166.525 233.276 166.062 236.251 167.525 238.03C169.305 240.132 172.77 240.328 175.196 242.183C178.312 244.437 177.976 249.058 175.728 251.831C173.707 254.762 169.4 256.655 168.343 259.434C167.81 262.055 170.42 264.492 167.082 266.328C159.583 270.171 150.393 266.79 142.577 266.005C137.732 265.581 132.766 264.397 128.029 263.834C123.361 263.365 118.706 264.182 113.905 263.593C112.169 263.27 103.049 262.808 103.961 260.466C105.304 258.073 110.763 255.199 114.247 254.116C117.895 252.901 121.936 253.819 125.647 253.426C128.453 253.11 130.752 251.711 127.725 249.508C126.154 248.324 123.519 247.178 121.214 245.811C118.668 244.184 114.101 241.746 114.145 239.442C114.57 237.22 118.503 236.321 120.251 235.099C122.36 233.909 123.627 232.314 123.38 229.914C123.228 227.395 121.587 222.982 125.343 222.514C130.1 221.849 136.3 225.895 139.531 221.172C141.241 218.399 140.595 214.753 140.126 211.67C139.505 208.333 138.391 205.643 136.098 203.813C134.736 202.68 132.988 201.819 131.582 200.806C125.932 197.027 134.134 191.83 131.633 187.62C130.29 186.037 127.516 186.056 126.129 184.606L126.091 184.562L126.116 184.594Z" fill="#EB5A2F"/>
<path d="M58.2 30.4755C58.6624 28.0635 61.1642 25.8478 60.4612 23.1637C60.0241 21.0619 57.7947 18.7259 56.775 17.2002C56.433 16.6558 55.8376 15.9025 56.3823 15.358C57.934 14.4148 60.2205 14.611 61.8989 13.8324C64.8504 12.3953 60.3978 9.23001 59.5111 7.59039C58.8461 6.6408 58.6687 5.46964 59.3021 4.46307C60.8158 2.01313 64.483 0.721692 67.8462 0.145608C71.5704 -0.595072 75.5543 1.62064 76.3587 5.44432C76.9287 7.69168 76.6437 10.3505 76.954 12.6485C77.3087 15.6239 79.0125 16.0101 81.5903 15.8138C83.8831 15.6366 86.1568 15.0415 88.4813 15.1048C94.7073 15.3327 100.56 19.7768 106.792 20.4605C110.446 21.0682 114.677 21.1379 117.401 23.9423C120.384 27.3735 123.576 36.249 123.221 40.8323C122.987 44.0546 120.644 46.6628 118.009 48.3341C110.085 53.3036 99.9452 50.3029 91.0908 50.2586C78.1384 50.4612 76.574 50.9676 67.9159 41.0413C66.1931 39.2244 64.2677 37.5658 62.3169 36.0021C60.6195 34.5017 58.01 32.9254 58.1874 30.5388V30.4755H58.2Z" fill="#EB5A2F"/>
<path d="M260.7 469.926C263.1 469.996 265.558 470.199 268.003 470.205C275.052 470.338 284.021 468.192 286.674 470.623C288.144 472.022 287.491 474.295 287.238 476.149C287.01 477.498 286.788 478.903 286.681 480.283C286.383 483.506 286.82 486.943 285.566 488.918C282.323 494.198 269.599 485.962 266.014 483.581C263.734 481.974 261.53 480.245 259.079 478.903C256.836 477.669 253.733 475.953 253.207 474.263C252.295 470.477 257.818 469.781 260.58 469.914H260.7V469.926Z" fill="#EB5A2F"/>
<path d="M211.475 423.517C213.831 421.852 217.086 421.478 219.867 422.048C226.049 423.371 225.751 430.898 223.382 439.521C221.837 445.288 219.728 449.2 213.407 450.137C208.922 450.783 205.432 451.821 206.053 445.908C206.256 443.458 206.794 440.875 207.2 438.305C208.264 433.449 207.371 426.644 211.392 423.586L211.475 423.523V423.517Z" fill="#EB5A2F"/>
<path d="M224.186 403.759C224.813 406.412 224.085 410.507 222.369 412.647C220.361 415.35 217.004 414.034 216.067 411.185C215.148 408.811 215.87 405.475 217.593 403.246C219.525 400.543 223.249 399.587 224.161 403.645L224.186 403.759Z" fill="#EB5A2F"/>
<path d="M323.543 201.402C322.618 198.648 323.954 194.21 325.55 191.608C326.906 188.918 331.523 185.816 332.34 190.355C332.878 193.697 330.073 200.49 327.235 202.446C325.892 203.484 324.119 203.275 323.574 201.49L323.543 201.402Z" fill="#EB5A2F"/>
<path d="M354.204 185.702C353.336 181.878 356.915 177.497 360.899 177.421C364.148 177.219 365.934 179.719 364.154 182.549C362.539 185.556 355.832 191.406 354.229 185.797L354.204 185.695V185.702Z" fill="#EB5A2F"/>
<path d="M359.632 170.92C361.317 170.875 362.982 171.705 363.445 173.313C363.812 174.579 363.173 175.908 361.982 176.427C359.911 177.428 356.364 175.668 355.832 173.876C355.3 171.863 357.846 170.958 359.505 170.92H359.626H359.632Z" fill="#EB5A2F"/>
<path d="M314.283 203.567C314.65 204.934 314.061 207.061 313.269 208.334C312.44 209.897 310.451 210.866 310.058 208.568C309.754 206.941 310.723 204.238 311.996 203.117C312.744 202.339 313.941 202.231 314.251 203.472L314.277 203.567H314.283Z" fill="#EB5A2F"/>
<path d="M298.987 229.313C296.561 230.997 293.521 226.344 295.763 224.647C297.809 223.521 301.407 227.363 299.063 229.25L298.987 229.307V229.313Z" fill="#EB5A2F"/>
<path d="M417.192 123.212C419.561 115.54 416.375 110.994 411.625 105.417C409.554 102.53 408.648 99.1941 407.229 95.6806C406.051 92.7306 402.922 90.1414 402.188 87.0267C401.193 83.0891 399.002 79.5629 397.754 75.6316C396.798 72.2638 397.83 68.6616 397.121 65.5027C396.171 61.7423 392.535 60.856 390.787 57.2729C384.979 48.505 388.19 44.0166 394.948 33.837C397.387 30.6591 395.911 26.7025 396.88 23.4929C398.825 18.9918 400.731 17.2572 394.093 15.5669C389.463 14.3895 384.416 14.5794 379.703 15.2251C375.371 15.7569 370.899 15.7442 366.821 16.9913C361.95 18.6689 357.345 21.1189 352.183 21.9165C342.873 23.9487 334.266 28.0129 326.139 32.7419C322.567 35.0019 318.526 36.2173 314.536 37.3252C311.369 38.1482 307.442 39.9524 307.708 43.7571C307.835 46.7705 310.077 48.8975 309.178 51.6197C308.57 53.2087 307.208 54.6584 306.15 56.0764C303.725 59.1024 301.793 62.6413 299.247 65.642C296.245 69.1808 292.793 72.3271 290.12 76.1444C283.9 84.4248 279.239 94.5601 270.207 100.175C260.77 106.183 242.896 114.761 232.471 122.959C225.973 127.998 223.933 131.373 224.699 138.83C224.661 144.445 224.427 151.08 224.3 156.929C223.61 164.671 223.141 171.16 230.33 176.301C238.279 182.555 246.525 179.605 254.221 174.598C256.836 173.072 259.275 171.597 261.283 169.508C264.317 166.355 267.661 161.285 269.168 168.103C269.852 171.521 269.776 175.326 270.403 178.801C271.911 186.018 274.007 193.393 276.762 200.287C278.105 203.592 278.878 206.878 279.277 210.22C279.631 213.176 279.327 216.5 280.613 219.216C281.797 221.678 284.103 223.318 286.611 222.274C289.468 221.052 291.108 218.311 293.584 216.487C298.48 213.145 304.637 213.55 307.227 207.124C310.742 198.755 312.212 189.43 317.12 181.669C320.775 176.256 327.134 172.718 329.287 166.317C332.619 156.391 324.613 154.77 319.863 148.408C317.494 144.781 318.343 139.704 318.716 135.5C319.134 127.606 324.847 124.339 329.895 119.439C336.14 112.419 346.654 107.892 348.352 97.9153C349.162 93.7118 349.827 89.3057 353.248 86.2797C358.017 81.3165 372.559 78.4867 372.103 88.2422C371.691 91.3125 369.816 93.9904 368.062 96.4846C363.635 102.923 358.549 108.804 353.488 114.736C346.749 122.56 347.845 130.062 349.612 139.431C350.176 143.458 350.264 147.345 352.297 150.605C355.68 156.22 362.52 159.544 368.968 159.316C377.467 158.898 384.644 153.061 392.96 151.542C399.559 150.193 402.612 144.635 406.463 139.469C410.441 134.405 415.222 129.587 417.161 123.307L417.192 123.2V123.212Z" fill="#EB5A2F"/>
<path d="M283.185 348.829C287.409 348.765 292.305 349.74 295.789 348.702C302.857 346.119 305.954 340.757 307.816 333.293C309.083 328.229 302.116 314.301 314.15 311.769C317.887 310.984 318.583 306.705 323.017 304.806C335.463 299.475 337.565 309.383 341.385 309.87C346.92 310.851 352.355 310.18 357.593 312.561C364.623 315.859 363.647 326.203 372.42 327.596C391.37 332.375 401.7 315.979 420.555 329.495C427.035 333.065 427.845 333.445 432.102 338.984C432.463 339.453 432.843 339.921 433.235 340.365C434.141 341.403 434.395 341.707 434.762 342.833C435.047 343.72 435.262 344.631 435.376 345.556C435.636 347.651 431.81 350.367 430.696 352.918C428.935 356.102 427.054 362.446 433.489 363.066C444.117 363.009 448.506 344.416 458.874 342.511C462.269 342.004 466.943 343.669 470.883 344.378C473.841 345.309 480.624 344.916 479.041 348.999C472.181 358.666 476.678 355.305 483.626 361.35C490.751 369.118 494.387 361.876 501.424 358.476C504.534 356.558 510.209 354.52 511.52 351.804C512.508 349.462 504.553 350.006 503.127 349.265C497.548 348.265 495.901 342.656 499.277 338.402C506.896 328.963 518.886 327.254 524.485 314.972C529.235 305.888 536.854 307.274 533.485 294.753C532.699 289.644 532.927 283.282 526.841 281.446C521.957 279.705 516.593 281.281 511.564 280.464C507.32 279.831 503.469 277.331 499.163 275.704C492.778 273.526 486.052 271.646 481.036 266.854C469.755 255.313 467.64 253.388 452.705 261.264C450.463 262.239 448.012 262.935 445.789 263.891C436.117 268.607 443.414 276.008 427.947 274.374C422.747 274.222 417.496 274.343 412.347 273.437C405.88 272.393 399.566 269.975 393.01 270.519C384.086 270.12 375.105 282.465 372.337 270.722C371.381 266.119 373.078 261.352 373.496 256.541C372.021 236.954 379.912 246.355 392.903 229.225C415.102 203.497 399.8 205.928 397.121 179.479C396.26 174.902 400.484 166.742 397.754 163.652C395.487 161.835 391.459 162.538 388.437 162.411C381.084 161.956 371.007 164.716 368.372 171.103C364.75 182.315 379.254 177.117 375.238 192.488C370.431 210.644 360.424 179.555 352.171 198.648C350.34 202.921 349.314 207.555 349.048 212.1C348.903 214.981 348.738 219.539 348.352 222.527C348.029 225.015 364.819 228.857 359.752 234.555C358.587 235.865 344.095 229.579 342.651 230.757C340.124 232.814 336.533 235.416 333.55 236.258C323.764 236.359 325.474 228.25 309.317 236.233C305.859 237.904 302.344 239.24 298.924 240.791C295.149 242.424 290.449 244.918 286.51 242.607C283.647 241.189 284.223 235.853 280.854 235.378C270.612 236.315 262.537 242.405 255.525 230.807C253.625 228.547 252.536 222.552 257.185 224.863C261.048 227.541 266.939 233.58 272.025 228.94C275.591 225.857 278.194 218.627 275.54 214.5C272.386 210.746 264.418 214.17 264.861 219.134C264.608 219.862 265.621 224.648 264.057 223.483C261.675 220.906 258.502 217.766 257.058 214.316C256.095 211.423 259.326 209.41 260.643 207.175C262.499 204.58 261.466 200.863 261.321 197.426C261.055 194.735 262.093 191.564 261.232 189.063C259.49 186.316 255.361 189.798 253.163 190.633C242.522 195.451 239.223 201.136 240.686 212.518C247.919 254.572 228.766 233.979 224.079 246.621C222.432 250.521 221.59 254.781 219.316 258.478C216.827 262.258 213.913 267.309 210.018 269.481C207.086 270.475 203.805 267.487 200.682 267.025C197.23 266.297 193.601 266.467 190.086 266.474C184.265 266.417 177.932 266.676 172.7 269.772C168.805 271.956 166.278 275.837 162.674 278.407C159.703 280.578 155.941 281.661 152.502 283.237C144.959 286.795 141.171 287.991 134.768 281.509C129.935 277.552 131.861 290.144 126.319 290.688C119.928 291.277 114.234 285.618 107.767 286.067C97.0001 286.725 97.9628 295.018 106.444 299.861C113.449 303.831 116.248 310.275 118.617 317.625C119.744 320.727 121.195 323.74 122.069 326.918C124.457 334.338 118.668 340.77 115.583 347.1C110.149 360.496 103.593 370.137 119.681 379.253C125.28 381.887 131.411 383.318 136.497 387.015C141.082 390.003 148.03 392.345 153.148 391.351C159.836 389.091 156.746 376.259 173.08 382.153C183.182 386.97 190.061 390.984 201.347 386.071C205.648 384.552 210.214 382.596 213.647 380.507C215.604 379.393 217.479 377.943 219.658 377.373C224.997 376.259 231.261 379.431 234.346 383.843C237.443 388.401 236.771 394.561 239.514 399.347C241.598 403.265 245.088 406.209 248.178 409.33C252.378 413.508 256 418.288 260.485 421.997C264.032 424.891 268.123 427.144 271.676 429.98C275.426 432.614 278.219 436.102 281.316 439.375C286.098 444.174 292.286 448.529 293.553 455.619C294.116 458.607 293.8 461.526 292.951 464.406C292.254 467.59 288.942 473.788 293.591 474.503C297.245 474.13 299.405 470.294 301.413 467.552C306.936 460.057 307.367 456.126 303.851 448.01C302.217 443.68 305.796 441.812 310.179 442.971C313.054 443.04 322.738 450.004 323.46 446.035C323.422 442.357 318.381 438.356 315.486 435.874C309.583 430.715 302.946 429.164 298.518 423.162C294.237 416.281 287.048 415.68 281.278 410.862C274.577 405.152 272.531 396.055 266.742 389.598C264.038 386.198 261.511 383.495 260.706 379.602C259.883 375.461 260.82 370.03 263.341 366.858C268.712 361.756 268.503 367.915 272.943 360.344C273.766 358.945 274.362 357.419 274.71 355.836C275.597 351.848 279.08 348.911 283.166 348.854L283.185 348.829Z" fill="#EB5A2F"/>
<path d="M118.383 205.428C122.518 202.301 122.613 197.078 120.479 192.627C118.687 188.519 113.987 184.372 109.376 186.518C107.267 187.538 105.779 189.956 104.48 192.71C102.783 196.495 100.781 200.395 104.125 203.123C108.033 205.82 113.968 208.96 118.287 205.497L118.376 205.428H118.383Z" fill="#EB5A2F"/>
<path d="M535.518 287.308C533.238 285.339 530.742 283.718 527.848 282.699C521.793 280.572 515.51 279.413 509.214 278.382C504.964 277.685 500.79 276.805 496.844 275.033C494.317 273.893 491.834 272.64 489.295 271.538C487.11 270.589 485.247 269.221 483.658 267.493C480.96 264.549 478.033 261.947 474.544 259.909C471.662 258.231 468.736 257.421 465.518 258.136C462.009 258.921 458.5 259.776 455.08 260.89C451.147 262.169 447.334 263.79 444.199 266.651C443.768 267.043 443.179 267.278 442.647 267.55C438.055 269.911 433.071 271.051 428.118 272.329C425.584 272.988 423.089 272.95 420.53 272.944C414.747 272.925 408.958 273.013 403.176 273.171C401.611 273.216 400.053 273.621 398.502 273.912C394.214 274.71 389.951 275.685 385.638 276.28C382.832 276.666 379.944 276.533 377.094 276.596C376.239 276.615 375.523 276.406 375.143 275.425C373.699 271.671 372.578 267.942 373.686 263.815C374.636 260.282 374.579 256.68 373.56 253.122C373.211 251.894 373.009 250.628 372.673 249.4C372.255 247.887 372.673 246.741 374.035 245.95C375.2 245.273 376.353 244.551 377.556 243.949C382.37 241.531 386.183 238.075 388.963 233.441C390.66 230.617 392.548 227.908 394.366 225.154C394.644 224.73 395.031 224.375 395.468 223.869C396.969 224.451 398.432 225.021 399.889 225.597C400.376 225.787 400.839 226.091 401.345 226.186C401.637 226.243 402.143 226.059 402.27 225.831C402.39 225.603 402.257 225.008 402.048 224.882C401.155 224.337 400.205 223.881 399.255 223.438C398.407 223.046 397.532 222.704 396.475 222.261C397.051 221.602 397.368 221.191 397.735 220.83C399.344 219.247 400.883 217.583 402.599 216.133C404.861 214.221 405.393 211.961 404.417 209.277C404.012 208.156 403.581 207.036 403.005 205.998C401.067 202.509 399.16 199.015 398.28 195.077C398.122 194.381 398.052 193.659 397.95 193.02C399.946 191.975 402.194 193.393 403.993 191.747C402.226 189.975 399.952 191.424 397.957 190.431C397.957 189.456 398.045 188.411 397.938 187.386C397.735 185.531 397.691 183.587 397.07 181.865C396.424 180.08 396.532 178.586 397.209 176.889C398.578 173.452 399.642 169.9 399.331 166.153C399.211 164.69 398.73 163.228 398.223 161.835C397.938 161.05 397.241 160.512 396.234 161.24C396.329 161.557 396.354 161.873 396.506 162.108C398.096 164.652 398.14 167.381 397.393 170.154C396.766 172.471 395.993 174.75 395.278 177.048C394.758 178.732 394.676 180.327 395.278 182.1C396.253 184.955 396.19 187.949 395.835 190.981C394.404 190.981 393.181 191.165 392.035 190.943C389.976 190.538 387.899 190.063 385.955 189.304C381.743 187.67 377.442 187.645 373.072 188.133C372.705 188.177 372.305 188.234 372.001 188.417C371.792 188.544 371.59 188.905 371.615 189.133C371.64 189.361 371.925 189.715 372.134 189.747C372.799 189.842 373.477 189.842 374.149 189.817C377.689 189.696 381.23 189.684 384.65 190.785C388.228 191.944 391.813 193.039 395.563 192.843C395.753 193.222 395.905 193.412 395.949 193.621C396.81 197.787 398.578 201.579 400.642 205.27C401.326 206.498 401.63 207.928 402.2 209.226C403.391 211.948 402.327 214.018 400.383 215.848C398.692 217.443 396.937 218.982 395.265 220.596C394.568 221.267 393.91 221.128 393.219 220.754C391.636 219.9 390.027 219.077 388.507 218.121C385.651 216.323 382.864 214.424 380.02 212.613C379.266 212.138 378.424 211.739 377.575 211.486C369.918 209.188 362.191 207.302 354.084 207.802C352.734 207.884 351.379 207.865 350.024 207.878C348.972 207.89 347.915 207.865 346.863 207.897C346.204 207.916 345.666 208.118 345.862 209.213C346.407 209.327 347.034 209.543 347.667 209.574C349.245 209.644 350.828 209.701 352.405 209.638C358.758 209.391 365.041 209.866 371.191 211.505C373.724 212.183 376.346 212.784 378.677 213.923C381.42 215.266 383.877 217.177 386.474 218.817C388.501 220.102 390.54 221.356 392.58 222.615C392.89 222.805 393.238 222.951 393.568 223.122C391.75 225.869 390.116 228.205 388.627 230.636C386.816 233.586 384.821 236.296 382.218 238.676C379.26 241.373 375.548 242.588 372.489 244.823C372.166 244.557 372.02 244.481 371.938 244.361C369.69 241.259 367.049 238.701 363.21 237.625C362.108 237.315 361.082 236.714 359.765 236.131C361.614 234.65 361.5 233.004 360.861 231.396C360.481 230.446 359.885 229.503 359.15 228.8C357.966 227.667 356.674 226.591 355.274 225.743C352.323 223.957 349.283 222.324 346.261 220.666C345.514 220.254 344.697 219.729 343.665 220.545C343.918 220.944 344.064 221.432 344.38 221.615C346.451 222.824 348.491 224.135 350.682 225.103C353.418 226.312 355.692 228.129 357.903 230.041C358.549 230.598 359.062 231.434 359.366 232.244C359.853 233.555 359.302 234.403 357.966 234.77C356.433 235.194 354.996 234.871 353.583 234.251C347.744 231.693 341.891 229.142 336.045 226.604C335.634 226.426 335.19 226.198 334.759 226.205C334.303 226.211 333.613 226.338 333.448 226.642C333.075 227.319 333.645 227.73 334.246 227.965C335.577 228.484 336.932 228.946 338.256 229.484C341.663 230.87 345.153 232.099 348.44 233.732C351.214 235.112 353.894 236.549 357.079 236.695C357.725 236.726 358.378 237.043 358.992 237.309C360.854 238.119 362.735 238.891 364.534 239.822C368.011 241.632 370.652 244.158 371.184 248.305C371.298 249.198 371.4 250.103 371.634 250.97C372.895 255.629 373.046 260.289 371.894 265.011C371.279 267.537 371.406 270.076 372.413 272.538C372.799 273.475 373.028 274.482 373.376 275.621C371.07 275.666 369.481 274.14 367.473 273.779C367.891 275.197 367.847 275.28 368.809 275.748C370.158 276.406 371.558 276.957 372.958 277.483C373.724 277.767 374.206 278.16 374.459 278.983C376.479 285.516 375.213 291.448 371.178 296.854C368.987 299.798 366.592 302.602 365.25 306.097C364.566 307.869 363.362 309.104 361.329 309.319C360.208 309.439 359.106 309.712 357.985 309.788C352.38 310.174 347.078 308.895 341.967 306.736C337.54 304.869 333.208 302.742 328.698 301.096C326.146 300.159 323.891 299.273 321.984 297.095C319.267 293.993 315.309 292.511 311.509 291.157C306.682 289.435 301.615 288.618 296.491 288.213C295.554 288.137 294.623 287.941 293.527 287.776C293.692 286.801 293.762 286.061 293.939 285.352C294.978 281.135 295.022 276.881 294.465 272.595C294.249 270.962 294.047 269.322 293.939 267.677C293.61 262.656 293.553 257.611 292.964 252.622C292.577 249.375 291.475 246.209 290.633 243.025C290.474 242.43 290.278 241.626 289.018 241.968C289.132 242.715 289.22 243.494 289.379 244.253C289.879 246.596 290.607 248.913 290.886 251.287C291.279 254.635 291.33 258.029 291.564 261.397C291.805 264.916 292.045 268.436 292.356 271.95C292.501 273.583 293.065 275.21 293.002 276.824C292.9 279.502 292.539 282.18 292.121 284.832C291.646 287.884 291.57 287.871 288.346 287.871C287.745 287.871 287.143 287.846 286.541 287.877C281.588 288.143 276.952 289.188 272.842 292.296C267.686 296.196 266.66 302.894 271.017 307.616C272.772 309.515 275.052 310.933 277.123 312.535C277.775 313.042 278.542 313.39 279.201 313.884C280.822 315.099 280.917 315.492 279.682 317.188C279.03 318.081 278.232 318.923 277.345 319.575C274.248 321.835 271.676 324.418 270.599 328.273C269.972 330.508 267.73 331.407 265.571 330.47C263.658 329.64 261.669 329.406 259.617 329.501C255.893 329.666 252.352 330.4 249.002 332.166C246.677 333.394 244.061 333.736 241.243 334.097C241.243 334.059 241.249 334.015 241.256 333.977C240.933 333.977 240.61 333.977 240.28 333.939C239.425 333.939 238.614 333.711 237.842 333.287C236.733 332.92 236.011 332.211 235.46 331.318C233.573 328.241 230.678 326.836 227.271 326.367C224.294 325.956 221.298 325.728 218.309 325.405C217.827 325.355 217.352 325.209 216.643 325.063C217.143 324.228 217.479 323.569 217.903 322.962C220.177 319.695 222.438 316.428 224.763 313.2C226.967 310.129 226.618 308.148 223.338 306.173C221.602 305.128 219.816 304.153 218.017 303.223C216.839 302.615 216.269 301.811 216.181 300.418C216.079 298.867 215.839 297.234 215.231 295.822C213.926 292.809 212.33 289.916 210.892 286.96C210.582 286.314 210.132 285.535 210.252 284.921C210.702 282.686 211.316 280.471 211.931 278.128C212.07 276.47 212.33 274.811 212.342 273.14C212.241 271.139 212.678 269.177 213.926 267.48C215.775 264.973 218.138 263.055 220.747 261.359C222.236 260.39 223.667 259.181 224.75 257.788C228.424 253.072 229.576 242.949 229.298 237.074C229.272 236.479 229.931 233.909 228.74 234.378C228.031 234.542 227.885 235.574 227.816 235.954C227.48 237.783 227.284 244.703 226.91 246.52C226.441 248.786 225.991 251.078 225.263 253.274C224.604 255.269 223.521 257.085 221.716 258.377C219.765 259.77 217.865 261.238 215.953 262.688C213.216 264.758 211.361 267.398 210.753 270.835C210.683 271.234 210.487 271.614 210.309 272.095C207.51 270.601 204.565 270.449 201.664 270.088C197.338 269.55 193.278 268.461 190.232 264.967C189.263 263.859 187.964 263.03 186.761 262.15C186.501 261.96 186.229 261.776 185.513 262.061C184.956 262.409 185.646 262.758 185.785 262.884C187.894 264.891 189.985 266.923 192.17 268.848C192.822 269.424 193.728 269.74 194.557 270.082C197.294 271.203 200.144 271.842 203.102 271.969C205.166 272.057 207.079 272.678 208.891 273.646C209.91 274.191 210.512 274.919 210.259 276.185C210.037 277.286 209.974 278.42 209.777 279.527C208.967 284.237 206.94 288.504 204.824 292.727C204.742 292.891 204.495 292.98 204.216 293.189C203.159 292.22 202.139 291.252 201.081 290.321C199.162 288.637 197.237 286.966 195.292 285.314C192.664 283.085 190.023 280.863 187.362 278.666C185.741 277.324 183.917 276.122 183.075 274.115C181.979 271.5 180.604 268.949 180.674 265.974C180.693 265.195 180.522 263.663 179.319 263.922C178.622 264.296 179.034 265.239 179.034 265.853C179.053 272.595 182.308 277.514 187.673 281.306C189.37 282.509 190.909 283.94 192.486 285.301C193.107 285.839 193.62 286.504 194.241 287.042C197.028 289.435 199.827 291.815 202.639 294.176C202.855 294.36 203.045 294.55 203.216 294.746C204.527 295.708 205.863 296.664 207.117 297.715C207.332 297.823 207.535 297.937 207.731 298.057C208.042 298.253 208.264 298.576 208.542 298.829C212.064 302.052 216.2 304.356 220.361 306.61C221.349 307.148 222.381 307.616 223.306 308.249C224.478 309.047 224.617 309.667 224.047 310.946C223.806 311.491 223.483 312.016 223.103 312.465C220.76 315.219 218.733 318.188 216.884 321.29C216.307 322.253 215.579 323.126 214.876 324.006C214.452 324.544 213.97 325 213.438 325.38C212.178 327.266 210.442 328.862 208.473 330.084C208.023 330.463 207.636 330.799 207.288 331.153C205.825 332.647 204.216 334.053 203.007 335.743C201.493 337.851 201.037 340.219 202.373 342.745C203.019 343.967 203.323 345.366 203.76 346.613C201.993 347.822 197.629 347.227 198.218 348.347C198.263 349.759 202.069 348.442 203.919 348.835C204.026 349.189 204.216 349.531 204.229 349.879C204.299 352.355 204.406 354.836 204.349 357.311C204.273 360.54 203.963 363.762 203.9 366.985C203.754 374.17 205.838 380.728 209.695 386.761C210.062 387.337 210.297 388.376 211.563 387.743C212.197 387.11 211.563 386.476 211.253 386.059C209.682 383.957 209.138 381.254 208.061 378.854C207.636 377.905 206.927 377.019 206.769 376.031C206.287 373.075 205.755 370.093 205.717 367.111C205.648 361.116 205.888 355.115 206.015 349.113C206.015 348.98 206.135 348.847 206.256 348.594C208.397 348.208 210.62 348.1 212.862 348.379C219.677 349.234 226.194 348.366 232.357 345.176C233.535 344.568 234.89 344.277 236.195 343.941C237.43 343.618 238.697 343.435 239.944 343.175C246.411 341.814 252.935 341.289 259.427 342.662C262.556 343.327 265.545 344.676 268.585 345.745C269.757 346.157 270.897 346.651 271.917 347.056C271.949 347.429 271.98 347.512 271.961 347.575C271.803 348.075 271.663 348.582 271.473 349.069C269.358 354.469 268.459 360.059 268.775 365.845C268.807 366.44 268.87 367.042 269.035 367.605C269.092 367.801 269.497 368.029 269.732 368.016C269.96 367.997 270.283 367.719 270.346 367.497C270.46 367.073 270.422 366.611 270.441 366.162C270.542 363.61 270.536 361.053 270.764 358.514C271.093 354.741 272.316 351.221 274.146 347.778C274.849 347.961 275.483 348.164 276.129 348.29C279.365 348.923 282.583 349.854 285.851 350.076C290.747 350.405 295.383 348.993 299.722 346.752C300.76 346.214 301.824 345.416 302.458 344.46C304.022 342.093 305.631 339.681 306.714 337.073C309.165 331.166 308.589 324.994 307.639 318.866C307.55 318.283 306.682 314.536 306.397 314.01C306.252 313.744 305.853 313.611 305.207 313.168C305.169 314.048 305.055 314.593 305.137 315.112C305.371 316.663 306.461 321.366 306.556 322.924C306.765 326.367 307.246 329.906 305.998 333.205C304.782 336.414 303.199 339.503 301.565 342.536C301.001 343.58 299.931 344.511 298.873 345.119C292.026 349.056 284.781 348.727 277.433 346.879C276.591 346.67 275.793 346.302 275.02 346.03C275.02 344.429 276.458 343.321 275.622 341.346C274.273 340.263 273.861 344.087 272.975 345.473C271.093 344.764 269.269 344.106 267.471 343.384C264.253 342.093 260.998 340.997 257.533 340.535C251.947 339.801 246.424 340.244 240.914 341.181C239.678 341.39 238.437 341.574 236.86 341.82C237.797 340.099 238.646 338.775 239.248 337.351C239.691 336.288 240.325 336.015 241.414 335.819C244.137 335.319 246.956 334.901 249.47 333.831C254.778 331.571 260.048 330.641 265.678 332.439C268.598 333.369 271.207 331.831 272.259 328.982C273.456 325.741 275.293 322.905 278.314 321.107C280.252 319.955 281.392 318.309 282.209 316.327C282.399 315.865 282.583 315.403 282.785 314.89C283.723 315.004 284.54 315.143 285.357 315.207C288.872 315.479 292.394 315.928 295.915 315.954C304.238 316.004 311.901 313.396 319.115 309.477C321.953 307.939 324.67 306.021 324.949 302.058C325.854 302.178 326.595 302.172 327.26 302.394C329.18 303.046 331.149 303.628 332.961 304.527C338.218 307.135 343.551 309.477 349.283 310.933C353.076 311.896 356.826 312.162 360.652 311.453C361.5 311.294 362.317 310.99 363.375 310.687C363.103 313.428 363.945 315.96 362.792 318.41C362.514 319.005 362.457 319.714 362.355 320.385C362.096 322.158 362.191 323.987 363.413 325.304C365.231 327.266 367.106 329.4 369.911 329.9C373.68 330.577 377.48 331.109 381.293 331.445C382.895 331.584 384.599 331.248 386.176 330.818C388.925 330.058 391.598 329.045 394.315 328.159C403.993 325.013 413.664 324.848 423.304 328.292C424.495 328.716 425.838 329.14 426.693 329.982C428.878 332.128 430.835 334.515 432.874 336.807C433.869 337.927 434.762 339.149 435.851 340.174C438.936 343.074 439.151 344.72 435.908 347.334C432.621 349.981 431.234 353.703 429.441 357.216C428.776 358.527 428.688 360.008 429.777 361.243C431.196 362.857 432.868 364.066 435.104 364.307C436.225 364.427 437.346 364.611 438.442 364.851C441.197 365.465 443.452 366.763 444.788 369.409C445.396 370.612 446.188 371.726 446.979 372.815C447.277 373.227 447.822 374.442 448.727 374.075C449.728 373.809 448.67 372.454 448.449 372.074C447.353 370.194 446.257 368.301 444.991 366.541C444.408 365.731 443.515 364.971 442.596 364.598C440.804 363.864 438.891 363.446 437.042 362.844C435.484 362.338 433.888 361.882 432.418 361.173C431.481 360.724 430.607 359.787 431.069 358.603C432.235 355.615 433.121 352.487 435.642 350.183C437.017 348.93 438.182 347.429 439.322 345.948C440.335 344.619 440.266 343.112 439.398 341.719C438.847 340.833 438.157 340.023 437.466 339.238C436.725 338.396 435.87 337.655 435.129 336.807C433.058 334.433 431.101 331.951 428.935 329.666C427.985 328.659 426.737 327.76 425.445 327.279C419.643 325.12 413.702 323.512 407.419 323.816C406.077 323.88 404.734 324.12 403.416 324.399C400.047 325.127 396.671 325.855 393.333 326.722C390.787 327.387 388.317 328.305 385.79 329.045C383.681 329.666 381.521 329.868 379.317 329.571C377.157 329.28 374.991 328.995 372.812 328.843C369.487 328.609 367.099 326.982 365.066 324.411C363.419 322.329 363.559 320.36 364.54 318.163C364.87 317.429 365.091 316.618 365.205 315.827C365.402 314.415 365.535 312.991 365.592 311.567C365.592 311.548 365.592 311.529 365.592 311.51C365.617 310.06 365.978 308.642 366.764 307.445C367.536 304.761 368.936 302.805 370.361 300.849C371.862 298.798 373.439 296.766 374.649 294.544C376.859 290.486 377.904 286.162 376.695 281.515C376.441 280.54 376.384 279.508 376.22 278.413C378.329 278.413 380.216 278.603 382.047 278.375C386.442 277.824 390.888 277.362 395.183 276.337C403.264 274.412 411.448 274.355 419.631 274.684C423.912 274.855 428.048 274.571 432.108 273.342C434.977 272.475 437.796 271.418 440.62 270.411C442.755 269.652 444.725 268.588 446.53 267.202C447.714 266.296 448.987 265.48 450.298 264.777C455.625 261.941 461.484 260.884 467.323 259.77C467.614 259.713 467.925 259.719 468.216 259.763C472.643 260.384 476.418 262.447 479.325 265.695C481.099 267.67 483.062 269.36 485.057 271.038C486.14 271.95 487.344 272.785 488.623 273.368C492.043 274.919 495.495 276.438 499.017 277.736C501.614 278.692 504.305 279.445 507.016 280.002C511.944 281.009 516.941 281.705 521.875 282.705C526.423 283.63 530.565 285.535 534.175 288.523C535.207 289.378 535.948 290.359 536.233 291.657C536.936 294.822 536.411 297.835 534.612 300.494C532.75 303.248 530.438 305.508 527.417 307.154C523.091 309.515 521.058 313.459 520.589 318.328C520.444 319.86 520.007 321.423 519.386 322.841C518.702 324.411 517.631 325.81 516.77 327.304C516.301 328.121 516.206 329.514 516.84 330.147C517.473 330.78 517.853 328.754 518.258 328.146C519.171 326.773 519.918 325.26 520.976 324.012C522.122 322.658 522.559 321.157 522.673 319.48C522.73 318.657 522.724 317.821 522.831 317.005C523.294 313.459 524.833 310.598 528.095 308.832C529.019 308.332 529.912 307.762 530.774 307.16C534.612 304.457 537.31 300.912 538.096 296.234C538.647 292.955 538.305 289.72 535.543 287.333L535.518 287.308ZM210.1 297.684C208.821 296.677 207.51 295.702 205.996 294.55C207.104 292.499 208.219 290.448 209.556 287.972C211.785 292.151 213.596 296.069 214.591 300.64C212.292 300.311 211.399 298.703 210.1 297.684ZM234.498 341.162C231.432 343.789 227.968 345.594 223.946 346.341C221.051 346.872 218.201 347.144 215.237 346.891C212.114 346.625 208.954 346.834 205.806 346.834C204.976 344.714 204.147 343.023 203.672 341.232C203.406 340.225 203.475 338.965 203.836 337.99C204.577 336.003 205.895 334.42 207.75 333.223C208.922 332.464 209.961 331.407 210.841 330.311C212.678 328.013 214.952 326.899 217.897 327.203C221.248 327.551 224.617 327.76 227.942 328.273C229.944 328.583 231.66 329.507 233.015 331.28C234.295 332.951 236.087 334.236 237.848 335.876C237.411 337.813 236.239 339.687 234.498 341.181V341.162ZM322.966 302.824C322.966 303.185 322.89 303.52 322.764 303.831C322.751 303.875 322.732 303.919 322.713 303.97C322.713 303.976 322.707 303.989 322.7 303.995C322.504 304.521 322.212 305.002 321.813 305.407C321.471 305.749 321.085 306.002 320.68 306.186C319.527 307.141 318.305 308.053 316.962 308.623C313.105 310.256 309.171 311.756 305.175 313.01C300.526 314.472 295.687 314.409 290.867 314.137C290.417 314.111 289.968 314.08 289.518 314.023C286.839 313.681 283.875 313.922 281.544 312.833C278.346 311.332 275.438 309.028 272.747 306.679C268.737 303.185 269.713 297.854 272.582 295.05C277.674 290.062 283.989 289.175 290.981 289.815C290.981 289.84 290.981 289.865 290.981 289.891C291.304 289.916 291.627 289.935 291.95 289.948C292.406 289.935 292.856 289.96 293.312 289.992C293.755 289.91 294.104 289.789 294.439 289.808C302.926 290.353 311.097 292.037 318.501 296.481C319.305 296.962 320.078 297.481 320.705 298.228C321.642 298.867 322.333 299.735 322.738 300.906C322.947 301.514 323.023 302.172 322.966 302.811V302.824Z" fill="#161616"/>
<path d="M392.079 33.2672C386.835 34.1472 382.142 34.7296 377.55 35.7742C374.206 36.5402 371.457 38.7052 369.044 41.0729C365.839 44.2128 362.343 46.5742 357.744 47.0236C355.135 47.2769 352.538 47.6757 349.935 48.0175C349.441 48.0808 348.953 48.2075 348.238 48.3467C349.276 49.5116 350.505 49.8407 351.683 50.2649C355.692 51.7019 359.436 53.5821 362.096 57.0576C364.027 59.5835 365.592 62.255 365.611 65.6166C365.63 69.0478 365.902 72.479 365.921 75.9165C365.934 78.4297 366.339 80.943 367.277 83.2726C368.132 85.3934 368.499 87.704 368.993 89.9577C369.12 90.5275 369.069 91.3188 368.233 91.2618C367.897 91.2428 367.372 90.5971 367.334 90.1983C367.004 86.7671 365.662 83.7158 364.243 80.6264C363.622 79.278 363.818 77.5308 363.736 75.9608C363.527 71.9155 363.527 67.8513 363.153 63.825C362.805 60.09 360.709 57.3615 357.561 55.2914C355.224 53.753 352.83 52.449 350.182 51.512C348.795 51.0246 347.497 50.1509 346.325 49.2457C345.451 48.5683 344.64 48.2834 343.639 48.6506C342.24 49.1697 340.732 49.5495 339.497 50.3409C335.203 53.0947 330.94 55.9055 326.792 58.8682C323.872 60.9509 320.965 63.1223 318.393 65.6103C316.538 67.4081 315.037 69.6618 313.763 71.9345C311.23 76.4419 309.235 81.2658 306.505 85.6403C303.94 89.7425 302.173 94.2056 299.829 98.3774C297.594 102.353 295.377 106.367 292.191 109.747C290.601 111.431 289.277 113.368 287.808 115.179C287.023 116.141 286.13 117.015 285.395 118.021C284.375 119.414 283.913 121.136 284.033 122.858C284.255 126.118 284.654 129.372 284.831 132.639C284.977 135.253 285.154 137.906 284.882 140.495C284.331 145.718 283.628 150.934 282.69 156.106C282.215 158.74 281.139 161.266 280.265 163.817C280.056 164.437 279.593 164.982 279.194 165.52C277.75 167.457 276.312 169.407 274.799 171.287C273.975 172.306 273.051 173.237 272.075 174.11C270.067 175.915 268.497 177.978 267.794 180.65C267.597 181.397 267.654 182.441 266.438 182.372C265.666 182.327 265.235 181.428 265.799 180.131C266.837 177.738 268.053 175.364 270.105 173.661C273.222 171.078 275.394 167.716 277.725 164.532C279.72 161.804 280.828 158.524 281.297 155.138C282.089 149.415 283.02 143.692 283.438 137.937C283.666 134.759 282.963 131.518 282.697 128.302C282.57 126.732 282.462 125.162 282.38 123.586C282.184 119.895 283.558 116.901 286.256 114.381C287.396 113.318 288.232 111.931 289.277 110.747C294.243 105.126 297.986 98.7573 301.121 91.9709C302.591 88.7866 304.288 85.7099 306.271 82.7662C308.266 79.8035 309.558 76.3723 311.186 73.1627C313.162 69.2567 315.417 65.5659 318.989 62.8564C320.122 61.9955 321.11 60.9509 322.238 60.0773C323.536 59.0708 324.911 58.1591 326.266 57.2285C328.679 55.5826 331.13 53.9873 333.524 52.3097C336.717 50.0623 339.896 47.796 343.703 46.6185C343.76 45.4283 343.234 44.3205 343 43.143C342.81 42.1871 344.127 41.7059 344.577 42.5669C344.887 43.1556 345.128 43.7507 345.375 44.3331C346.23 46.3399 346.223 46.4286 348.333 46.264C351.93 45.9854 355.528 45.6942 359.1 45.2068C362.02 44.8079 364.477 43.2063 366.466 41.1552C369.234 38.2937 372.534 36.2173 375.992 34.4447C377.67 33.5838 379.741 33.4065 381.66 33.109C384.257 32.7102 386.886 32.5076 389.495 32.1974C392.428 31.8492 395.252 31.1022 397.9 29.7601C397.9 29.7601 397.913 29.7601 397.919 29.7538C398.584 29.4309 399.148 30.3868 398.571 30.8426C398.21 31.1275 397.767 31.2921 397.418 31.5073C396.728 31.9378 395.993 32.2923 395.208 32.5266C393.884 32.9127 393.232 33.2862 393.34 35.0335C393.466 37.1289 393.245 39.2497 392.466 41.1995C391.123 44.5547 391.566 47.5301 392.808 50.4865C394.144 53.6708 395.385 56.893 396.62 60.1153C397.875 63.3882 398.084 66.8574 398.362 70.2949C398.831 76.1127 401.003 81.3608 403.594 86.4696C406.412 92.0278 409.433 97.4785 412.151 103.087C413.354 105.569 414.139 108.272 414.887 110.944C415.78 114.122 415.463 117.306 414.576 120.497C413.063 125.934 410.466 130.765 407.065 135.253C403.569 139.862 400.851 144.844 400.889 150.864C400.902 152.51 401.067 154.15 401.174 155.796C401.206 156.315 401.339 156.84 401.307 157.353C401.295 157.587 400.984 157.993 400.813 157.993C400.497 157.993 399.984 157.815 399.908 157.587C399.623 156.739 399.369 155.853 399.306 154.967C398.863 149.237 399.578 143.698 402.46 138.627C403.34 137.076 404.55 135.715 405.614 134.266C408.787 129.942 411.365 125.327 412.873 120.129C413.797 116.932 413.975 113.754 413.006 110.589C412.087 107.588 411.118 104.619 409.484 101.853C407.768 98.9535 406.533 95.7755 404.981 92.7748C404.126 91.1162 402.846 89.6602 402.124 87.9573C399.325 81.4051 396.373 74.8846 396.133 67.5601C395.968 62.5969 394.271 58.0072 392.295 53.5188C391.75 52.2844 391.053 51.1069 390.584 49.8534C390.192 48.8152 389.862 47.7073 389.799 46.6058C389.634 43.8963 389.951 41.2375 390.863 38.6356C391.395 37.1099 391.604 35.4703 392.092 33.2799L392.079 33.2672Z" fill="#161616"/>
<path d="M165.632 400.353C164.409 400.638 164.137 399.568 163.656 398.897C161.565 396.017 159.216 393.383 156.157 391.528C152.635 389.395 149.025 387.394 145.415 385.407C143.116 384.14 140.848 382.703 138.384 381.861C135.496 380.868 132.418 380.418 129.416 379.747C127.661 379.355 125.837 379.177 124.146 378.601C117.477 376.329 113.164 371.657 110.345 365.275C109.11 362.483 108.679 359.73 108.92 356.78C108.945 356.482 108.863 356.109 109.009 355.893C109.097 355.767 109.199 355.653 109.306 355.539C109.718 355.121 110.465 355.165 110.719 355.697C110.744 355.741 110.757 355.792 110.763 355.843C110.902 356.647 110.909 357.489 110.89 358.312C110.769 362.737 112.372 366.668 115.045 369.966C118.573 374.334 123.145 377.297 128.928 377.974C134.419 378.614 139.695 379.855 144.465 382.881C146.992 384.482 149.836 385.571 152.394 387.122C155.143 388.787 157.746 390.699 160.381 392.554C162.509 394.054 163.922 396.2 165.334 398.334C165.733 398.935 166.303 399.562 165.638 400.366L165.632 400.353Z" fill="#161616"/>
<path d="M105.937 186.176C105.867 187.493 105.779 188.816 105.728 190.133C105.677 191.551 105.557 192.975 105.646 194.387C105.772 196.508 106.925 198.046 108.806 198.971C111.415 200.256 114.057 201.49 116.698 202.725C119.896 204.225 121.347 207.048 122.328 210.188C122.417 210.467 121.993 210.904 121.809 211.271C121.499 211.106 121.062 211.024 120.903 210.764C120.511 210.131 120.219 209.435 119.928 208.745C118.946 206.428 117.382 204.845 114.943 203.908C112.442 202.946 110.085 201.598 107.71 200.332C105.253 199.015 103.954 196.881 104.005 194.102C104.043 191.861 104.277 189.627 104.499 187.392C104.55 186.904 104.917 186.442 105.132 185.968C105.398 186.037 105.665 186.1 105.931 186.17L105.937 186.176Z" fill="#161616"/>
<path d="M260.934 230.662C260.136 231.415 259.484 230.94 258.971 230.408C256.767 228.123 254.075 227.813 251.098 228.18C248.951 228.446 246.772 228.516 244.606 228.503C242.769 228.497 241.952 227.572 240.052 226.939C239.805 226.857 239.09 226.338 238.95 225.926C238.843 225.622 239.064 225.274 239.387 225.224C239.786 225.16 240.192 225.312 240.382 225.439C242.814 227.028 245.499 226.92 248.21 226.686C249.926 226.534 251.643 226.363 253.359 226.211C256.653 225.926 258.756 227.996 260.852 230.041C260.972 230.155 260.915 230.453 260.941 230.662H260.934Z" fill="#161616"/>
</g>
<defs>
<clipPath id="clip0_69_84">
<rect width="634" height="514" fill="white"/>
</clipPath>
</defs>
</svg>
