<svg width="106" height="42" viewBox="0 0 106 42" fill="none" xmlns="http://www.w3.org/2000/svg">
<path d="M61.5922 21.4229C57.0426 22.9811 52.408 24.2917 47.7066 25.3306C43.2482 26.315 38.6622 27.2089 34.0945 27.5169C32.1993 27.6438 30.2738 27.6498 28.5063 26.9371C26.9148 26.2969 25.785 24.9863 25.0622 23.4341C24.8435 22.963 24.6613 22.4678 24.5034 21.9604C27.3036 21.133 30.0977 20.3055 32.7217 18.9889C36.5424 17.0743 40.5999 13.6921 41.3713 9.25895C42.3067 3.88967 37.3563 -0.615941 32.0961 0.0665437C27.7531 0.628235 24.0418 3.6662 22.0677 7.48328C20.1725 11.1494 19.7534 15.4134 20.3001 19.4841C19.2067 19.8344 18.1255 20.2089 17.0626 20.6498C8.84423 24.0683 2.47852 31.2193 0.0731518 39.7594C-0.55856 42.0061 2.95837 42.9665 3.59009 40.7257C5.74033 33.0855 11.5533 26.6049 19.0549 23.7361C19.7109 23.4824 20.379 23.2529 21.0472 23.0355C21.5756 24.7508 22.3774 26.3754 23.5497 27.7525C25.0015 29.4496 27.1335 30.5247 29.3202 30.9173C31.5433 31.3159 33.7725 31.2193 36.0078 30.9596C38.5893 30.6576 41.1648 30.271 43.722 29.8181C48.8364 28.9 53.8962 27.6679 58.8588 26.1338C60.0979 25.7473 61.331 25.3426 62.564 24.9199C63.4934 24.5998 64.1068 23.6757 63.8396 22.6912C63.5905 21.7913 62.5336 21.1028 61.5982 21.4229H61.5922ZM23.7927 17.9984C23.6226 15.8724 23.7259 13.7283 24.309 11.6688C25.2505 8.31072 27.6316 5.16404 30.9116 4.04066C32.6185 3.45481 34.4771 3.35817 35.9896 4.46344C37.5264 5.58682 38.2188 7.37457 37.6478 9.19251C36.5302 12.7137 32.9586 14.9967 29.7272 16.4039C27.8259 17.2313 25.8397 17.8353 23.8413 18.4212C23.8292 18.2822 23.8109 18.1373 23.7988 17.9984H23.7927Z" fill="#EB5A2F"/>
<path d="M105.964 4.17335C105.951 4.10692 105.951 4.04048 105.927 3.97404C105.879 3.80493 105.8 3.6479 105.696 3.50295C105.502 3.14661 105.186 2.86878 104.749 2.73591C104.731 2.72987 104.712 2.72383 104.688 2.71779C104.639 2.70571 104.597 2.68759 104.542 2.68155C104.342 2.63323 104.141 2.62115 103.941 2.65135C93.2018 2.79026 82.4384 3.51503 71.8147 5.13366C68.8202 5.58664 65.8438 6.13021 62.8857 6.7825C61.926 6.99389 61.3611 8.09915 61.6101 9.01114C61.6101 9.01114 61.6101 9.01718 61.6101 9.02322C61.7073 9.62719 62.0961 10.1828 62.8614 10.4003C65.8256 11.2458 68.7898 12.0914 71.7479 12.9369C73.2057 13.3537 74.6635 13.7704 76.1213 14.1872C76.8502 14.3925 77.5791 14.6039 78.308 14.8092C78.5935 14.8878 78.8729 14.9723 79.1584 15.0508C79.0794 15.2924 78.9944 15.528 78.9154 15.7696C78.6481 16.5668 78.3748 17.3701 78.1075 18.1673C77.5852 19.7195 77.0567 21.2717 76.5343 22.8239C75.4835 25.9283 74.4387 29.0327 73.3879 32.1432C73.3029 32.3968 73.2968 32.6565 73.3454 32.9102C73.3272 33.2726 73.4061 33.635 73.5762 33.9309C74.1107 34.8369 75.1737 34.9999 76.0666 34.5832C81.2661 32.1552 85.4087 28.0482 89.4055 24.0439C93.1289 20.3174 96.737 16.4702 100.151 12.4598C102.1 10.1708 103.989 7.82736 105.727 5.37525C105.976 5.02495 106.024 4.59009 105.945 4.17939L105.964 4.17335ZM72.7319 9.43392C72.1245 9.25877 71.5232 9.08966 70.9157 8.91451C78.7271 7.61598 86.6539 6.93953 94.5503 6.55903C93.791 6.89725 93.0317 7.24152 92.2725 7.57974C90.4927 8.37094 89.2415 8.87223 87.2613 9.69363C85.3601 10.4788 83.4528 11.2639 81.5516 12.0431C81.2053 11.88 80.8348 11.7411 80.4522 11.6324C77.8767 10.8955 75.3013 10.1647 72.7319 9.42788V9.43392ZM81.8006 26.3088C80.6708 27.3114 79.4924 28.2536 78.2594 29.1112C79.5107 25.4029 80.7619 21.7005 82.0132 17.9922C82.2926 17.1647 82.7057 16.2709 82.9365 15.377C86.5506 13.9033 90.1769 12.4598 93.7424 10.8774C95.3642 10.1587 96.986 9.42184 98.6078 8.70312C96.6944 11.0042 94.69 13.2329 92.6673 15.4193C89.1929 19.1699 85.6334 22.9145 81.8006 26.3088Z" fill="#EB5A2F"/>
</svg>
