<svg width="259" height="270" viewBox="0 0 259 270" fill="none" xmlns="http://www.w3.org/2000/svg">
<g clip-path="url(#clip0_69_125)">
<path d="M72.6789 126.21C71.7396 122.75 68.3376 122.554 65.9004 121.074C65.5577 117.792 63.5139 117.779 61.064 118.554C59.5027 116.91 57.4653 115.97 55.5422 114.872C55.136 112.681 55.0217 110.117 51.588 111.685C50.2425 110.25 49.2904 108.345 47.088 107.945C47.0563 106.231 46.593 104.854 44.5492 104.714C43.832 102.13 42.55 99.8382 40.8997 97.7495C41.4075 95.9973 40.3539 95.0069 39.1163 94.1054C38.983 91.1089 37.2629 88.6075 36.5204 85.8015C36.5013 84.0937 36.0507 82.6589 34.1974 82.1129C34.8257 79.9227 34.5084 78.0498 32.3821 76.7991C32.9089 75.4215 36.8885 74.5771 33.0422 72.5265C33.9689 70.0887 33.0549 67.6254 33.1565 65.1748C34.7496 63.3528 36.1649 61.5244 33.385 59.5309C33.7912 57.1883 34.191 54.8456 34.5972 52.503C36.1141 51.1254 38.0309 49.9064 36.5584 47.386C37.6247 45.7163 38.7672 44.0657 38.2912 41.9072C40.9886 41.5263 42.0422 39.882 41.8391 37.2727C43.2735 36.1871 44.7841 35.1713 45.6536 33.508C46.7707 32.2509 49.1508 32.0351 48.8398 29.6099C50.4583 28.2767 54.8186 28.3085 51.404 24.4612C52.4449 22.9312 53.1874 21.0964 55.32 20.7028C55.7389 22.1122 56.5259 23.1153 57.9921 22.0106C59.9279 20.5568 62.4603 19.7442 63.4632 17.2174L63.3997 17.2809C64.8087 17.4714 65.9575 17.2809 66.0527 15.5097L65.9892 15.5795C69.0866 15.935 70.7368 13.3511 73.047 12.1068C73.9102 12.7036 74.4751 14.697 75.8841 12.5766C76.6521 11.4212 77.528 10.1832 79.2226 10.2721C80.657 10.0054 82.0851 9.73878 83.5195 9.47214C85.6775 11.5672 87.3848 11.5418 88.4321 8.42462C90.7614 7.56756 93.4017 8.32939 95.6485 7.03428C98.1429 11.1482 100.453 9.26899 102.725 6.39307C105.207 6.65971 105.931 6.73589 108.419 6.99618C110.475 11.2498 111.389 11.364 114.144 7.92308C116.467 8.89442 118.694 10.253 121.385 9.84671C121.487 13.5099 123.169 14.5383 126.482 12.8623C128.9 14.3796 129.522 14.7732 131.94 16.2905C131.794 21.2679 132.397 21.8964 136.161 20.6965C138.554 22.3979 140.312 24.9183 143.136 26.0547C143.892 27.7244 144.273 29.9528 147.008 28.6005C147.256 31.8891 150.289 33.2921 151.819 35.7109C151.635 38.2377 151.546 40.6946 155.119 40.7581C156.052 42.9928 156.992 45.2212 157.925 47.4495C157.081 48.5923 154.675 48.5923 155.31 50.8016C155.818 52.5665 156.82 53.8743 158.972 53.5251C159.429 55.8995 158.369 58.3755 159.435 60.7118C156.725 62.464 158.052 64.6416 158.794 66.7556C158.426 69.3522 158.052 71.9551 157.684 74.5517C155.062 75.4659 154.643 77.0848 156.167 79.3259C155.012 82.2653 152.447 84.6206 152.587 88.087C150.81 88.6075 150.143 89.9281 150.017 91.6485C148.087 94.2451 146.329 96.9369 145.383 100.079C144.038 100.708 143.517 101.933 143.124 103.241C141.778 104.65 139.95 105.781 140.185 108.142C138.655 108.403 137.887 109.31 137.894 110.866C134.911 112.459 132.867 114.999 131.052 117.754C128.938 117.659 127.263 118.09 127.479 120.763C124.616 122.071 121.754 123.373 118.891 124.68C116.581 124.909 113.426 123.48 113.077 127.613C110.551 129.385 107.39 129.372 104.668 130.591C103.195 129.543 102.211 127.417 100.149 127.709C98.5618 127.937 98.9934 129.747 98.7649 130.946C95.5279 130.527 92.2974 130.102 89.0604 129.683C87.5498 128.801 86.0583 127.842 84.1669 128.229C81.8947 127.709 79.6288 127.182 77.3566 126.661C77.9723 125.239 80.1239 123.62 77.547 122.395C75.5097 121.424 73.961 122.477 73.5802 124.896C73.504 125.372 72.9899 125.772 72.6789 126.21ZM97.9588 117.443C98.4666 110.967 96.4356 104.524 94.1062 98.4352C91.9864 92.8929 87.1563 88.7536 81.2981 87.395C69.8038 84.7349 59.6169 88.7155 50.0203 94.88C47.1896 96.6957 47.8941 98.5685 49.7728 100.892C50.6804 102.016 51.7023 103.051 52.8003 103.997C63.9773 113.577 76.2459 121.024 91.066 123.626C98.2127 124.884 98.1873 125.049 97.9588 118.198C97.9588 118.052 97.9588 117.913 97.9588 117.449V117.443ZM74.7544 40.7898C75.6366 34.7904 72.0252 30.4289 69.2833 25.75C67.8679 23.3375 66.3574 22.7661 63.8059 24.6834C59.6423 27.8133 55.9864 31.4637 52.0831 34.8602C43.6924 42.1484 40.7538 51.7729 39.3828 62.21C39.2559 63.1877 39.0782 64.394 40.4682 64.6416C47.5767 65.9113 54.7678 67.2318 61.6352 63.8797C71.1937 59.2198 74.7544 50.973 74.7544 40.7898ZM121.297 44.1165C122.007 43.9641 122.731 43.8245 123.461 43.8562C129.281 44.1419 134.111 41.6151 138.414 37.8568C141.042 35.5649 142.591 33.2032 138.37 30.7019C136.682 29.7052 135.355 28.0418 133.965 26.5943C125.365 17.6618 114.848 13.0655 102.491 12.7163C95.9849 12.5322 94.2776 14.3352 95.1789 20.8425C95.7057 24.658 96.8227 28.3529 99.3234 31.5018C103.214 36.3966 108.596 39.1201 114.004 41.7739C116.314 42.9039 118.529 44.7133 121.303 44.1102L121.297 44.1165ZM123.258 116.433C133.603 108.523 140.02 97.8257 146.177 87.1791C150.721 79.3195 149.712 78.2022 140.515 78.8942C133.337 79.4338 126.349 81.8082 122.871 88.6012C118.256 97.6099 118.739 107.025 123.258 116.427V116.433Z" fill="#ED79B7"/>
<path d="M141.435 73.7011C140.287 72.3678 141.505 70.9267 141.251 69.5364C140.934 67.7969 140.293 66.5208 138.243 66.5779C136.168 66.6351 136.11 68.127 136.047 69.6062C136.009 70.4696 136.034 71.333 136.047 72.2028C136.06 73.3265 135.691 74.228 134.479 74.4248C133.324 74.6153 133.121 73.6503 132.816 72.8567C132.613 72.3171 132.48 71.7266 132.163 71.2632C131.033 69.6253 129.846 67.2001 127.561 68.3555C124.87 69.7205 126.933 71.7266 127.783 73.4344C128.304 74.4756 130.011 75.5929 128.488 76.7103C127.168 77.6816 126.177 76.3992 125.448 75.2184C125.162 74.7549 124.673 74.3423 124.184 74.0883C122.318 73.0979 120.395 70.1712 118.314 72.8821C116.511 75.2374 118.98 76.6468 120.814 77.8594C121.646 78.4117 122.763 79.1609 121.868 80.2338C120.643 81.7003 119.564 83.77 117.006 82.9573C115.115 82.3606 113.236 81.7003 111.192 82.1193C110.551 82.2526 109.682 81.8971 109.434 82.8875C109.225 83.7192 109.764 84.2778 110.316 84.7095C111.421 85.573 112.493 86.576 113.756 87.1093C115.826 87.9918 116.854 88.9758 115.629 91.3248C114.62 93.2548 113.617 93.7055 111.586 92.5628C109.967 91.6486 107.651 91.1343 106.87 93.5595C106.172 95.7244 108.012 96.7402 109.828 97.5909C111.078 98.1749 112.754 98.0861 113.503 99.5716C114.708 101.978 113.058 104.416 110.208 104.555C108.571 104.631 106.108 104.073 106.254 106.555C106.362 108.396 108.285 109.501 110.412 109.444C111.548 109.412 112.842 109.088 113.782 109.52C115.026 110.091 114.988 111.742 115.216 112.942C115.553 114.707 113.795 114.3 112.862 114.719C111.351 115.386 108.266 114.389 108.844 117.278C109.447 120.294 112.024 120.014 114.404 118.992C114.607 118.903 114.924 119.094 115.711 119.271C113.763 120.865 112.163 122.458 109.974 122.992C108.184 123.423 105.835 125.772 104.636 123.481C103.557 121.43 103.233 118.325 105.334 116.173C107.143 114.319 109.663 113.107 104.668 111.97C101.843 111.329 101.754 104.943 104.28 103.133C105.156 102.505 106.343 102.314 106.851 101.368C106.388 100.2 105.582 100.479 104.928 100.384C103.284 100.149 100.847 102.441 100.212 99.0066C99.736 96.4227 98.1937 93.3881 102.548 92.3787C103.303 92.2073 103.976 91.4073 104.541 90.7725C105.505 89.6869 106.584 88.4108 105.347 86.995C104.204 85.6872 102.979 86.7348 101.881 87.3823C100.771 88.0362 99.5393 88.5759 98.6063 89.4393C97.2607 90.6899 96.1373 90.4614 94.8425 89.4774C93.4145 88.3854 93.4906 86.9316 94.2523 85.719C95.5661 83.6366 97.7558 81.002 95.3884 79.345C92.583 77.3769 92.0245 81.3321 90.6281 82.8367C89.0033 84.5889 86.528 84.1636 85.722 81.7828C85.4554 81.002 85.6268 80.0814 85.6077 79.218C85.576 77.7134 85.3665 76.0754 83.6719 75.7707C81.9455 75.4596 81.1395 76.9452 80.7333 78.3736C80.2255 80.1639 79.3814 81.2242 77.363 80.6464C75.2749 80.0497 76.0238 78.4308 76.1317 77.0849C76.2713 75.339 76.6902 73.2249 74.2149 73.0979C71.8539 72.9773 71.0478 75.047 71.0859 76.9896C71.1367 79.7259 70.9272 81.7257 67.4047 81.7638C65.6719 81.7828 64.3391 82.113 63.9202 79.8529C63.66 78.4435 62.581 77.5864 61.0323 77.9927C59.5979 78.3673 59.4519 79.6434 59.6614 80.7861C60.1374 83.4525 58.4047 84.4048 56.4371 85.1286C54.1141 85.9856 54.0697 83.6303 53.1177 82.5955C52.1466 81.5416 51.2898 80.0306 49.5951 81.002C47.6656 82.1066 48.3194 83.808 49.3476 85.0778C52.3751 88.8107 48.7002 89.9852 46.8723 91.8327C46.282 92.4231 45.2665 92.258 45.1015 91.4708C43.7877 85.3254 39.6114 80.1132 39.294 73.6693C39.2496 72.8186 38.7228 71.3076 40.1953 71.2441C41.6487 71.1807 41.8455 72.5329 41.8201 73.7645C41.8074 74.3423 41.8391 74.92 41.8328 75.4977C41.8201 77.3833 42.8166 78.6403 44.6064 78.6339C46.428 78.6339 47.3293 77.3896 47.2912 75.4406C47.2658 74.1709 46.2693 72.2599 48.4463 71.9044C50.6424 71.5489 51.2199 73.2757 51.7848 75.066C52.2545 76.5516 52.3814 78.9387 54.7933 78.4625C56.8433 78.0562 57.2115 76.304 56.7735 74.3423C56.5069 73.1487 55.9103 71.7266 57.8715 71.2251C59.4456 70.8251 60.7277 71.1362 61.6099 72.571C61.9907 73.1805 62.3144 73.828 62.6825 74.4438C63.4632 75.7453 64.2375 76.9515 66.0528 75.7707C67.7982 74.6407 67.8934 73.4408 66.6049 71.8663C65.2086 70.1585 63.8377 68.3301 67.2269 67.1874C68.9025 66.6224 69.5245 68.0762 70.356 68.9079C71.8602 70.3998 73.2756 70.5966 74.8433 69.1301C76.7537 67.3461 74.9448 66.4319 73.9547 65.3082C73.0725 64.3115 71.4286 63.4988 73.0661 61.8292C74.399 60.4706 75.3701 58.4073 77.8517 60.3182C79.4131 61.5244 81.3743 61.4292 82.3517 59.6389C83.3863 57.7407 82.4787 56.4519 80.2191 56.0202C78.1818 55.6329 78.607 54.1727 79.0386 52.6681C79.5718 50.8143 80.2191 49.6017 82.5675 49.9509C83.7607 50.1287 85.8108 52.1666 86.3059 49.4367C86.7692 46.8845 84.7953 46.5036 82.6818 46.6877C81.4314 46.7957 80.3207 46.3513 80.1938 44.9165C80.0351 43.1643 81.533 43.342 82.5866 43.1769C83.7227 42.9992 84.8905 42.9865 85.8679 42.2627C86.6676 41.6723 87.7212 41.1771 87.5054 39.9646C87.2706 38.6377 86.2488 37.8568 84.9921 38.1615C81.552 39.0059 81.1902 36.6315 80.2826 34.3016C79.1465 31.3939 81.0633 30.8797 82.9103 29.9972C83.9067 29.5211 84.4272 28.6577 83.8179 27.5022C82.9483 25.8516 81.6536 26.7531 80.4159 26.8547C79.3433 26.9372 78.9942 29.6544 77.4138 27.6356C76.2269 26.1182 76.7347 25.0961 78.2008 24.1692C79.229 23.5153 79.375 22.4043 78.7467 21.5155C77.9216 20.3537 76.6902 20.5061 75.7572 21.4266C74.253 22.9185 73.5358 21.8774 72.7996 20.6775C71.8793 19.1665 73.0661 18.5443 74.0753 18.0682C78.0104 16.2017 82.2184 15.2558 86.4899 14.5892C87.3595 14.4558 88.7621 13.967 88.997 15.3764C89.2001 16.6017 89.0224 18.0428 87.5054 18.6205C86.4328 19.0332 85.3221 19.357 84.2177 19.6807C82.7198 20.1188 81.9265 21.0393 82.5866 22.5567C83.126 23.7946 83.5703 25.3437 85.6839 24.4549C86.966 23.9153 88.5908 22.6455 89.6571 25.0263C90.5076 26.9118 90.7297 28.5244 88.9208 30.0353C87.9434 30.8479 86.8834 31.9209 87.6197 33.3683C88.4385 34.9745 89.9363 34.9428 91.358 34.2889C93.5287 33.2922 94.6394 34.8349 95.6676 36.1236C97.083 37.8949 95.0202 38.7393 94.1888 39.5646C92.8242 40.9232 92.3418 42.1866 93.7255 43.5452C95.4264 45.2148 96.461 43.8118 97.394 42.4215C98.4095 40.9041 99.6281 40.1233 101.304 41.5327C102.624 42.65 104.864 43.3484 102.998 45.8497C102.453 46.5798 102.37 47.7733 102.357 48.7574C102.338 50.0715 102.643 51.5127 104.185 51.7984C105.512 52.046 106.47 50.954 106.692 49.862C107.46 46.0783 109.383 46.2814 112.297 47.6273C114.328 48.5669 115.045 49.4875 113.934 51.5063C112.925 53.3411 113.509 55.4361 115.032 55.963C116.828 56.5789 117.901 54.4965 118.726 52.9855C119.456 51.6523 118.58 49.2653 121.398 49.3732C124.305 49.4811 126.571 49.8874 125.955 53.7601C125.663 55.5821 125.828 57.9248 128.392 57.9502C130.95 57.9756 130.373 55.6964 130.468 54.0267C130.519 53.1824 131.103 52.2174 130.842 51.5317C130.151 49.6843 129.916 48.4844 132.27 47.5702C134.873 46.5608 135.634 48.5733 136.764 49.8176C137.697 50.8397 137.494 53.1189 139.969 51.919C142.832 50.535 141.912 49.0367 140.426 47.2401C139.62 46.2687 137.691 45.0879 139.449 43.7737C140.966 42.6373 141.499 44.8085 142.254 45.6275C143.467 46.9417 144.552 48.6685 146.443 47.0686C148.112 45.6593 146.703 44.1991 145.834 42.9103C145.434 42.3135 144.964 41.7612 144.488 41.2216C143.67 40.2947 143.67 39.4059 144.603 38.5996C145.885 37.4886 146.557 38.3266 147.319 39.3868C151.553 45.3228 153.958 51.7984 153.412 59.1945C153.139 62.9275 152.866 66.6541 152.606 70.3871C152.447 72.7488 150.962 74.5327 148.88 74.0693C146.323 73.4979 148.493 71.587 148.677 70.2538C148.779 69.5427 148.982 68.819 148.931 68.1143C148.83 66.616 148.455 65.1685 146.551 65.1495C144.723 65.1304 144.184 66.3113 144.006 67.9683C143.771 70.1077 145.459 73.2249 141.391 73.6185L141.442 73.7011H141.435ZM107.219 64.0575C107.333 60.2611 102.922 56.1916 98.7078 56.2106C94.9441 56.2297 90.8566 60.2484 90.8376 63.9559C90.8186 68.292 94.8552 72.2345 99.5329 72.444C104.077 72.6535 107.06 69.3904 107.219 64.0575Z" fill="#161616"/>
<path d="M97.9588 117.443C97.9588 117.906 97.9588 118.052 97.9588 118.192C98.1873 125.042 98.2127 124.871 91.066 123.62C76.0809 120.992 63.7107 113.412 52.4322 103.679C51.1374 102.562 49.9251 101.254 48.9858 99.832C47.7608 97.9845 47.6339 96.4164 50.0203 94.8801C59.6169 88.7156 69.8038 84.735 81.2981 87.3951C87.1627 88.7537 91.9864 92.893 94.1062 98.4353C96.4356 104.524 98.4666 110.967 97.9588 117.443Z" fill="#F5F1E8"/>
<path d="M74.7544 40.7899C74.7544 50.973 71.1874 59.2135 61.6289 63.8798C54.7615 67.2318 47.5704 65.9113 40.4618 64.6416C39.0718 64.394 39.2495 63.1878 39.3765 62.2101C40.7538 51.773 43.6924 42.1485 52.0767 34.8603C55.9801 31.4701 59.6359 27.8133 63.7995 24.6834C66.351 22.7662 67.8616 23.3375 69.277 25.75C72.0188 30.4289 75.6303 34.7904 74.748 40.7899H74.7544ZM57.1543 49.8938C60.4674 49.8366 62.289 48.2495 62.5428 45.018C62.8348 41.3232 59.3376 40.7391 57.4272 40.5169C54.7234 40.2058 53.5492 43.4118 53.5048 45.6339C53.4667 47.4496 54.698 49.6652 57.1543 49.9001V49.8938Z" fill="#F5F1E8"/>
<path d="M122.363 43.7737C119.082 45.1831 116.594 43.0563 113.998 41.7802C108.59 39.1265 103.208 36.4029 99.3171 31.5082C96.8101 28.3529 95.693 24.6644 95.1726 20.8488C94.2777 14.3415 95.9786 12.5385 102.484 12.7226C114.842 13.0718 125.359 17.6682 133.959 26.6007C135.355 28.0482 136.675 29.7051 138.364 30.7082C142.591 33.2096 141.036 35.5713 138.408 37.8631C133.832 41.8564 128.672 44.4593 122.357 43.78L122.363 43.7737Z" fill="#F5F1E8"/>
<path d="M123.258 116.433C118.739 107.031 118.256 97.6162 122.871 88.6075C126.349 81.8082 133.343 79.4402 140.515 78.9005C149.718 78.2022 150.721 79.3259 146.177 87.1855C140.02 97.8321 133.597 108.529 123.258 116.44V116.433Z" fill="#F5F1E8"/>
<path d="M36.5458 47.3925C38.0183 49.9129 36.1015 51.1381 34.5846 52.5094C31.7665 52.465 28.8342 52.7634 26.8984 50.0208C26.1939 49.0241 24.8357 48.1606 25.8829 46.6878C26.7778 45.4244 28.079 44.7959 29.6276 45.2276C31.9506 45.8815 34.2418 46.6624 36.5458 47.3861V47.3925Z" fill="#EB5A2F"/>
<path d="M79.2163 10.2721C77.5153 10.1895 76.6458 11.4212 75.8778 12.5766C74.4688 14.697 73.9039 12.7036 73.0407 12.1068C72.0569 10.4752 71.5492 8.67221 71.3207 6.81207C71.0986 4.99002 71.3905 3.33303 73.4914 2.65373C75.4272 2.03157 76.5569 3.2632 77.4138 4.57736C78.5181 6.26609 79.2226 8.17702 79.2163 10.2721Z" fill="#EB5A2F"/>
<path d="M156.148 79.3259C154.624 77.0849 155.043 75.466 157.671 74.5454C159.835 75.9104 162.177 74.9644 164.399 74.8882C166.436 74.8184 168.055 75.3199 168.378 77.2372C168.734 79.3386 166.855 80.1195 165.154 80.6274C161.968 81.5733 159.131 79.929 156.148 79.3259Z" fill="#EB5A2F"/>
<path d="M143.073 103.279C143.473 101.965 143.987 100.74 145.339 100.111C147.732 100.987 150.124 101.883 152.53 102.727C154.142 103.292 154.993 104.359 154.301 105.984C153.641 107.533 152.308 108.606 150.531 108.034C147.662 107.107 144.933 105.838 143.067 103.279H143.073Z" fill="#EB5A2F"/>
<path d="M33.3723 59.5373C36.1523 61.5371 34.7369 63.3655 33.1438 65.1812C30.4337 64.832 27.4442 66.0573 25.0959 63.6194C23.1918 61.6387 23.5853 60.4007 26.1304 59.6769C28.5296 58.9913 30.9478 59.1817 33.3723 59.5373Z" fill="#EB5A2F"/>
<path d="M137.837 110.917C137.837 109.361 138.598 108.447 140.134 108.193C142.438 108.638 144.304 110.022 146.196 111.259C147.44 112.078 149.058 113.145 147.383 115.005C146.189 116.326 145.072 117.481 143.067 115.9C141.15 114.389 139.062 113.132 137.843 110.917H137.837Z" fill="#EB5A2F"/>
<path d="M158.788 66.7303C158.039 64.6099 156.713 62.4259 159.429 60.6737C162.133 59.6579 165.617 57.0995 167.039 61.3657C168.22 64.9146 163.999 65.0733 161.714 66.1589C160.845 66.5716 159.772 66.5525 158.794 66.7366L158.788 66.7303Z" fill="#EB5A2F"/>
<path d="M147.008 28.6069C144.273 29.9592 143.885 27.7308 143.136 26.0611C144.26 23.8264 145.821 21.9218 148.132 20.9441C149.35 20.4299 150.848 19.9792 151.914 21.6933C152.822 23.1471 152.282 24.1756 151.273 25.0771C149.896 26.3024 148.887 27.9911 147.008 28.6069Z" fill="#EB5A2F"/>
<path d="M112.969 127.696C113.318 123.557 116.479 124.992 118.796 124.757C119.291 126.09 119.761 127.429 120.294 128.744C121.062 130.635 120.586 132.165 118.859 133.149C116.797 134.324 116.092 132.254 115.28 131.2C114.442 130.115 114.251 128.54 112.969 127.696Z" fill="#EB5A2F"/>
<path d="M102.376 6.82482C100.212 9.4468 98.016 10.9387 95.6486 7.03432C95.547 6.03759 95.3566 5.03451 95.3566 4.03778C95.363 1.68245 96.5308 0.0381568 98.9173 0.00641372C101.259 -0.0253293 101.951 1.69514 101.938 3.84732C101.932 4.84405 102.224 5.83444 102.376 6.83117V6.82482Z" fill="#EB5A2F"/>
<path d="M48.8271 29.61C49.1381 32.0352 46.7517 32.251 45.6409 33.5081C43.4322 32.5748 42.0613 30.6512 40.4301 29.045C39.6494 28.2705 38.6656 27.242 39.4082 26.0167C40.2333 24.6454 41.7756 24.9565 42.9308 25.3438C45.2982 26.1373 47.0182 27.9657 48.8271 29.61Z" fill="#EB5A2F"/>
<path d="M126.438 12.8814C123.15 14.5321 121.481 13.4909 121.379 9.84046C122.166 8.31679 122.839 6.71694 123.766 5.27581C124.546 4.06322 125.955 3.7204 127.218 4.26638C128.672 4.89489 128.634 6.22175 128.151 7.5867C127.536 9.33257 127.003 11.1102 126.438 12.8751V12.8814Z" fill="#EB5A2F"/>
<path d="M149.985 91.6676C150.112 89.9472 150.785 88.6267 152.562 88.0997C154.44 88.7028 156.364 89.198 158.179 89.9472C159.518 90.5058 160.825 91.5343 160.045 93.2104C159.353 94.6959 157.995 95.5784 156.173 95.1784C153.749 94.6451 152.01 92.9056 149.985 91.6676Z" fill="#EB5A2F"/>
<path d="M114.144 7.92314C111.345 11.4212 110.45 11.2435 108.323 6.79943C109.529 4.52663 108.508 -0.0888075 112.284 0.488916C115.515 0.984107 113.541 5.07261 114.131 7.50413C114.163 7.63745 114.144 7.78347 114.15 7.92314H114.144Z" fill="#EB5A2F"/>
<path d="M127.402 120.833C127.187 118.154 128.862 117.722 130.982 117.818C132.22 118.96 133.584 120.001 134.663 121.278C135.876 122.712 135.52 123.938 133.984 125.201C132.486 126.426 131.477 126.185 130.436 124.89C129.383 123.576 128.412 122.192 127.402 120.833Z" fill="#EB5A2F"/>
<path d="M60.861 118.624C63.3172 117.849 65.3673 117.856 65.71 121.144C64.4787 122.833 63.3236 124.579 61.9907 126.185C61.4068 126.89 60.5436 127.829 59.471 127.22C58.4237 126.623 57.9794 125.48 58.2777 124.274C58.7792 122.236 59.1092 120.09 60.8673 118.624H60.861Z" fill="#EB5A2F"/>
<path d="M41.8264 37.2728C42.0295 39.8821 40.9759 41.5264 38.2785 41.9073C36.1523 41.1708 34.1974 40.1678 32.7249 38.3838C32.0458 37.5585 31.5698 36.6697 32.1918 35.6983C32.8138 34.7207 33.9499 34.7524 34.8892 35.019C37.2249 35.692 39.5162 36.511 41.8264 37.2728Z" fill="#EB5A2F"/>
<path d="M84.0083 128.312C85.8996 127.918 87.3912 128.883 88.9081 129.766C88.8446 131.626 88.9081 133.505 88.6796 135.352C88.5146 136.698 87.6006 137.981 86.2551 138.012C85.0936 138.038 84.2304 136.679 84.1288 135.587C83.9004 133.181 84.0273 130.737 84.0083 128.312Z" fill="#EB5A2F"/>
<path d="M136.161 20.7029C132.391 21.9028 131.794 21.2743 131.94 16.2906C132.372 15.7256 132.785 15.1479 133.242 14.6083C134.39 13.2497 135.755 11.8911 137.551 13.1925C139.214 14.3924 138.84 16.1573 137.881 17.7699C137.304 18.7476 136.739 19.7252 136.167 20.7093L136.161 20.7029Z" fill="#EB5A2F"/>
<path d="M98.6316 131.035C98.8601 129.829 98.4222 128.02 100.015 127.791C102.084 127.499 103.068 129.626 104.541 130.68C104.566 131.245 104.464 131.854 104.636 132.375C105.404 134.705 103.982 136.33 102.294 136.825C100.047 137.486 99.8503 135.016 99.2029 133.562C98.8601 132.788 98.8094 131.886 98.6253 131.035H98.6316Z" fill="#EB5A2F"/>
<path d="M44.3144 104.758C46.3582 104.898 46.8215 106.276 46.8532 107.996C45.4442 110.009 43.667 111.596 41.3758 112.529C40.4174 112.923 39.4336 113.024 38.6593 112.097C37.9611 111.259 38.4181 110.542 38.8941 109.799C40.2778 107.653 41.4773 105.323 44.3144 104.758Z" fill="#EB5A2F"/>
<path d="M155.1 40.6819C151.521 40.6185 151.603 38.1552 151.794 35.6221C153.844 35.1015 155.894 34.5873 157.938 34.0603C159.169 33.7429 160.191 34.0286 160.921 35.0952C161.93 36.5553 160.54 37.1902 159.765 37.7679C158.306 38.8662 156.668 39.7233 155.1 40.6819Z" fill="#EB5A2F"/>
<path d="M51.3659 111.742C54.8059 110.167 54.9202 112.739 55.3264 114.935C53.7143 115.456 53.911 117.265 52.9653 118.249C52.0323 119.221 51.1818 120.865 49.6078 119.976C48.4971 119.348 48.5161 117.9 48.916 116.541C49.4364 114.764 49.8553 112.993 51.3659 111.742Z" fill="#EB5A2F"/>
<path d="M158.966 53.4744C156.814 53.8172 155.805 52.5094 155.297 50.7445C154.663 48.5352 157.068 48.5352 157.919 47.3924C159.22 47.4559 160.4 46.9734 161.632 46.7195C162.704 46.4973 164.392 45.7354 165.16 47.8686C165.916 49.97 164.094 50.2874 163.225 51.1254C162.063 52.2491 159.785 51.5571 158.972 53.4807L158.966 53.4744Z" fill="#EB5A2F"/>
<path d="M38.8751 94.1246C40.1128 95.0261 41.1664 96.0228 40.6586 97.775C39.2242 98.6765 37.7771 99.5717 36.349 100.492C35.2193 101.222 34.1847 101.813 33.0359 100.41C31.8998 99.0257 32.7503 98.0607 33.5183 97.0513C34.8638 95.28 36.5204 94.0611 38.8751 94.1246Z" fill="#EB5A2F"/>
<path d="M34.191 82.1194C36.0443 82.6654 36.5013 84.1001 36.514 85.8079C34.629 86.2333 33.2771 87.7633 31.2016 87.9918C29.4054 88.1887 28.3963 87.5982 27.806 86.2015C27.0951 84.5128 28.4597 83.9224 29.6974 83.4843C31.1699 82.9574 32.6931 82.5701 34.191 82.1194Z" fill="#EB5A2F"/>
<path d="M88.4257 8.42462C87.3785 11.5418 85.6712 11.5672 83.5132 9.47214C84.1415 7.89134 83.0689 6.44385 83.1514 4.92019C83.2276 3.50445 83.4053 1.88555 85.2713 1.80937C86.9088 1.73953 87.1563 3.15527 87.4039 4.44404C87.6641 5.78995 87.2389 7.31361 88.4257 8.42462Z" fill="#EB5A2F"/>
<path d="M33.0359 72.533C36.8821 74.5836 32.9026 75.4279 32.3758 76.8056C32.1219 76.9262 31.8554 77.0341 31.6142 77.1801C29.4689 78.4753 27.5458 77.7325 25.7559 76.45C25.3942 76.1898 25.0578 75.2438 25.2355 74.9899C26.4985 73.2313 28.3518 72.6409 30.4654 72.679C31.3222 72.6917 32.1791 72.5901 33.0296 72.5393L33.0359 72.533Z" fill="#EB5A2F"/>
<path d="M77.3757 122.465C75.332 121.493 73.7833 122.547 73.4025 124.972C73.3263 125.449 72.8122 125.849 72.4949 126.287C72.1648 127.169 71.8411 128.045 71.5111 128.928C69.7657 130.724 71.0414 131.632 72.5583 132.464C76.6077 132.578 76.4871 129.334 77.1789 126.737C77.7946 125.315 79.9525 123.69 77.3693 122.465H77.3757Z" fill="#EB5A2F"/>
<path d="M47.5069 16.2843C46.4216 16.462 46.1297 17.0398 46.6247 18.0238C46.8532 21.1727 49.1762 22.7789 51.3913 24.4613C52.4322 22.9313 53.1748 21.0965 55.3073 20.7029C53.7079 17.4588 52.0767 14.2654 47.5006 16.2843H47.5069Z" fill="#EB5A2F"/>
<path d="M64.1423 7.40886C62.9871 5.65029 61.3877 5.47253 59.6169 6.17088C57.8588 6.86288 58.2587 8.32305 58.3031 9.80863C58.3983 13.4464 61.3242 14.9764 63.3934 17.154C63.3934 17.1984 63.3934 17.2365 63.3934 17.2873C64.796 17.4777 65.9512 17.2873 66.0464 15.516C66.0273 15.516 66.0146 15.516 65.9956 15.5033C66.5034 12.5512 65.7671 9.88481 64.1486 7.40886H64.1423Z" fill="#EB5A2F"/>
<path d="M107.219 64.0575C107.06 69.3967 104.071 72.6535 99.5329 72.444C94.8552 72.2282 90.8186 68.2857 90.8376 63.9559C90.8566 60.2484 94.9441 56.2297 98.7078 56.2106C102.922 56.1916 107.333 60.2547 107.219 64.0575ZM98.6316 61.7593C96.7783 61.7403 95.6994 62.2799 95.9342 64.0004C96.2135 66.0446 97.5717 66.9207 99.5456 66.87C100.866 66.8319 102.218 66.7493 102.154 64.8574C102.065 62.3244 100.066 62.1783 98.6316 61.7657V61.7593Z" fill="#EB5A2F"/>
<path d="M57.1543 49.8937C54.6981 49.6652 53.4667 47.4495 53.5048 45.6275C53.5493 43.4055 54.7234 40.2058 57.4272 40.5105C59.3377 40.7327 62.8348 41.3168 62.5429 45.0117C62.289 48.2431 60.4674 49.8366 57.1543 49.8874V49.8937Z" fill="#EB5A2F"/>
<path d="M80.0351 105.184C79.394 107.615 76.9632 108.479 75.1416 108.136C72.9202 107.717 69.899 106.003 70.6606 103.343C71.2001 101.457 72.3743 98.048 76.0365 98.9559C79.2417 99.7495 80.5301 101.851 80.0351 105.184Z" fill="#EB5A2F"/>
<path d="M116.378 32.8097C114.277 32.2574 113.534 30.156 113.826 28.5879C114.188 26.6706 115.667 24.0613 117.964 24.7216C119.589 25.185 122.534 26.2008 121.747 29.3624C121.062 32.1304 119.253 33.2414 116.371 32.8097H116.378Z" fill="#EB5A2F"/>
<path d="M131.642 96.6323C129.7 96.118 129.015 94.1817 129.287 92.7279C129.617 90.9566 130.988 88.5441 133.115 89.1536C134.619 89.5853 137.342 90.5185 136.612 93.4389C135.977 95.9974 134.302 97.0259 131.642 96.6259V96.6323Z" fill="#EB5A2F"/>
<path d="M98.6317 61.7593C100.066 62.1719 102.065 62.318 102.154 64.851C102.224 66.7429 100.866 66.8255 99.5456 66.8636C97.5654 66.9207 96.2071 66.0382 95.9342 63.994C95.6994 62.2735 96.7847 61.7339 98.6317 61.7529V61.7593Z" fill="#F5F1E8"/>
<path d="M168.207 155.217C166.804 156.925 166.436 159.61 164.284 159.852C162.958 159.998 160.641 158.506 160.984 156.804C161.308 155.192 162.444 152.97 164.786 153.071C166.093 153.128 167.375 153.96 168.207 155.217Z" fill="#161616"/>
<path d="M215.397 155.268C216.139 155.731 216.977 156.106 217.637 156.69C220.588 159.287 222.772 159.122 224.339 155.204C224.746 154.195 225.786 153.363 226.681 152.64C227.576 151.916 228.611 151.941 229.525 152.792C230.439 153.636 229.925 154.455 229.468 155.249C229.144 155.814 228.738 156.335 228.389 156.887C225.685 161.128 226.986 164.08 231.949 165.146C233.955 165.578 234.329 163.883 235.11 162.829C236.17 161.394 236.418 159.369 238.277 158.493C239.242 158.036 240.15 157.56 241.152 158.449C242.187 159.363 241.844 160.321 241.305 161.261C240.657 162.391 239.82 163.432 239.274 164.607C238.715 165.819 236.614 166.854 237.782 168.219C239.001 169.635 240.937 170.511 242.682 171.374C243.888 171.977 244.078 170.638 244.529 169.921C245.633 168.149 246.668 166.327 247.861 164.613C248.477 163.731 249.442 163.159 250.578 163.737C251.853 164.391 252.12 165.508 251.504 166.727C250.502 168.708 249.518 170.72 248.28 172.549C247.144 174.231 247.271 175.368 249.08 176.288C249.315 176.409 249.524 176.561 249.746 176.701C257.908 181.792 256.023 183.126 253.345 189.335C251.847 192.801 252.856 194.026 255.224 195.963C256.607 197.093 260.473 197.531 258.391 200.565C256.347 203.53 254.729 200.057 253.009 199.315C251.117 198.496 249.778 197.6 248.217 200.184C246.706 202.679 247.036 204.108 249.384 205.314C250.628 205.955 252.082 206.203 253.288 206.888C254.494 207.574 256.531 207.784 255.585 210.183C254.633 212.602 253.085 211.999 251.504 211.167C249.778 210.26 248.14 209.199 246.458 208.209C244.923 207.307 243.558 207.003 242.65 209.079C241.939 210.717 240.588 212.266 242.885 213.789C244.605 214.926 246.243 216.189 247.848 217.484C248.54 218.043 250.26 218.208 249.353 219.63C248.712 220.627 247.715 221.395 246.116 220.836C244.231 220.176 242.701 218.995 241.019 218.037C236.43 215.427 236.722 220.354 235.174 222.068C233.231 224.22 235.605 224.823 237.103 225.496C238.766 226.245 240.416 227.058 242.143 227.629C243.469 228.067 244.427 228.677 243.723 230.093C243.12 231.305 242.371 232.778 240.435 231.864C238.664 231.026 236.894 230.137 235.04 229.534C233.72 229.109 232.311 227.242 231.258 228.213C229.683 229.661 228.731 231.819 227.678 233.762C227.215 234.619 228.084 235.197 228.75 235.578C230.559 236.606 232.21 237.882 234.241 238.562C235.408 238.949 236.767 239.743 236.024 241.457C235.307 243.114 233.974 243.349 232.457 242.618C230.471 241.666 228.503 240.65 226.548 239.635C222.302 237.432 222.626 242.155 220.849 243.564C219.021 245.012 220.519 246.167 222.029 247.056C223.698 248.04 225.368 249.088 226.827 250.351C227.633 251.049 228.376 252.091 227.208 253.373C226.237 254.44 225.526 254.167 224.53 253.525C222.994 252.541 221.267 251.83 219.808 250.751C217.466 249.024 216.044 248.827 214.343 251.868C211.614 256.75 211.341 256.592 215.593 260.293C216.082 260.718 216.533 261.194 217.009 261.639C218.1 262.655 217.916 263.645 217.072 264.731C216.177 265.886 215.276 265.512 214.356 264.864C212.972 263.899 211.607 262.902 210.236 261.918C209.342 261.277 208.478 259.874 207.298 261.195C206.416 262.172 205.019 263.137 205.857 264.908C206.447 266.153 207.501 267.486 205.629 268.61C203.801 269.708 202.049 270.698 199.827 269.321C197.168 267.67 194.293 266.356 191.659 264.661C189.647 263.366 188.378 263.518 187.356 265.753C186.924 266.686 186.213 267.499 185.591 268.337C184.969 269.168 184.246 269.498 183.256 268.826C182.424 268.26 181.834 267.575 182.17 266.559C182.411 265.835 182.805 265.099 183.306 264.528C185.763 261.728 184.633 260.058 181.986 258.033C178.787 255.582 176.725 255.354 175.043 259.43C174.668 260.337 174.008 261.696 172.358 260.756C170.746 259.836 170.6 258.604 171.349 257.125C171.698 256.433 172.186 255.798 172.637 255.157C173.754 253.563 174.141 252.275 172.002 251.005C170.029 249.83 168.505 249.519 166.957 251.526C165.789 253.043 165.516 256.674 162.514 254.713C159.289 252.598 163.288 251.107 163.872 249.399C164.773 246.777 163.231 242.891 160.438 242.536C159.061 242.365 158.642 243.412 158.223 244.345C157.696 245.526 157.493 246.859 156.389 247.742C155.659 248.32 154.961 248.992 153.958 248.389C152.943 247.774 152.517 246.91 153.044 245.736C153.26 245.259 153.457 244.771 153.628 244.282C155.64 238.549 155.577 238.638 150.727 235.21C148.684 233.768 147.414 234.124 146.342 236.149C145.612 237.527 145.06 239.006 144.254 240.327C143.644 241.33 142.921 242.212 141.416 241.234C140.128 240.396 139.957 239.412 140.496 238.251C141.264 236.6 142.223 235.038 143.092 233.426C143.543 232.588 144.831 231.623 143.409 230.816C141.664 229.82 140.515 227.572 138.103 227.991C137.627 228.074 137.196 228.861 136.885 229.407C136.301 230.41 135.895 231.534 135.26 232.499C134.555 233.572 134.34 235.711 132.372 234.784C130.595 233.953 130.779 232.334 131.731 230.785C132.207 230.01 132.474 229.096 132.988 228.359C134.625 226.023 134.168 224.588 131.61 223.135C129.237 221.782 127.669 221.509 126.374 224.252C125.663 225.75 124.851 227.21 123.956 228.607C123.467 229.363 123.074 230.778 121.652 229.705C120.586 228.899 119.564 228.194 120.713 226.544C121.938 224.779 122.293 222.525 123.766 220.811C124.597 219.846 125.187 218.5 123.22 217.808C122.871 217.687 122.604 217.332 122.293 217.091C116.2 212.317 116.06 212.247 119.564 205.479C120.827 203.041 120.332 202.07 118.015 201.168C116.581 200.61 115.324 199.6 113.947 198.877C112.988 198.375 111.821 197.861 112.347 196.623C112.976 195.137 114.563 195.163 115.749 195.67C117.406 196.375 118.936 197.404 120.44 198.419C121.849 199.365 123.854 200.261 124.248 198.312C124.597 196.559 128.862 194.083 124.019 192.325C122.712 191.849 121.601 190.807 120.465 189.931C119.577 189.246 119.018 188.249 119.742 187.208C120.465 186.167 121.557 185.735 122.833 186.363C123.188 186.535 123.531 186.725 123.88 186.897C129.173 189.404 129.065 189.36 131.337 184.008C132.08 182.256 131.871 181.386 130.227 180.618C129.535 180.294 128.989 179.672 128.342 179.234C127.129 178.415 124.87 177.875 125.892 176.028C127.047 173.946 129.395 174.879 130.652 176.028C134.111 179.196 135.368 177.145 136.847 174.092C137.665 172.409 137.431 171.444 136.066 170.479C135.235 169.889 134.244 169.444 133.603 168.689C132.734 167.673 130.214 167.089 131.915 165.115C133.419 163.369 135.393 163.94 136.694 165.489C138.503 167.641 140.071 167.902 141.556 165.4C142.775 163.35 145.428 161.159 141.537 159.058C140.966 158.747 140.407 158.385 139.912 157.966C138.878 157.096 136.802 156.461 137.697 154.805C138.763 152.836 140.763 153.814 142.165 154.678C144.603 156.189 146.678 157.922 148.411 153.744C149.23 151.77 149.103 150.805 147.357 149.637C145.745 148.557 144.355 147.129 142.965 145.758C142.33 145.129 141.759 144.259 142.667 143.364C143.327 142.717 144.101 142.825 144.825 143.25C146.405 144.177 148.049 145.015 149.509 146.101C151.242 147.396 152.473 147.351 153.514 145.332C154.447 143.523 156.122 141.809 153.006 140.311C151.026 139.365 149.153 138.127 147.389 136.813C146.697 136.298 145.396 135.581 146.227 134.298C146.964 133.162 148.024 132.934 149.268 133.683C150.264 134.279 151.362 134.698 152.365 135.276C156.033 137.378 159.086 137.771 162.279 133.886C164.722 130.915 168.6 130.794 171.895 133.022C174.402 134.718 175.855 134.184 177.143 131.696C177.905 130.229 178.775 128.801 179.784 127.499C180.78 126.217 182.081 125.239 183.776 126.445C185.407 127.613 184.265 128.712 183.579 129.785C182.945 130.769 182.31 131.759 181.618 132.705C180.628 134.051 178.508 135.181 181.415 136.857C183.573 138.101 185.471 139.047 186.74 136.006C187.115 135.117 187.622 134.432 188.263 133.784C189.342 132.699 190.44 131.803 191.862 133.359C193.271 134.902 191.265 135.168 190.878 136.025C190.681 136.463 190.148 136.749 189.952 137.187C189.336 138.546 186.391 139.796 189.26 141.409C191.088 142.437 193.557 143.917 194.883 140.323C195.315 139.142 196.203 138.044 197.13 137.168C197.809 136.521 198.812 135.74 199.916 136.552C201.078 137.403 201.103 138.482 200.361 139.65C199.802 140.533 199.351 141.511 198.685 142.298C196.959 144.336 198.241 145.567 199.783 146.704C201.382 147.878 202.557 147.827 203.845 145.904C204.689 144.647 205.667 143.434 206.397 142.095C207.101 140.806 208.294 141.117 209.119 141.377C210.16 141.707 209.938 142.926 209.672 143.771C209.411 144.621 208.999 145.497 208.421 146.158C205.838 149.116 206.866 150.887 210.103 152.29C211.519 152.906 212.331 153.236 213.137 151.465C213.638 150.36 214.825 149.681 215.149 148.253C215.657 146.012 218.608 145.967 219.382 146.342C221.407 147.332 219.681 148.799 218.875 149.999C217.732 151.694 216.621 153.414 215.403 155.255L215.397 155.268ZM225.215 224.474C225.234 223.49 224.46 223.211 223.781 222.843C222.289 222.036 220.753 221.287 219.325 220.367C218.392 219.763 217.028 219.071 217.707 217.656C218.316 216.399 219.706 216.621 220.868 216.849C221.49 216.976 222.067 217.345 222.664 217.605C228.002 219.929 227.856 219.84 230.87 214.907C232.038 212.996 231.708 212.393 229.912 211.479C228.814 210.92 227.951 209.764 227.183 208.723C226.612 207.949 224.631 207.6 225.971 206.063C226.999 204.882 228.281 205.117 229.493 205.943C230.464 206.603 231.423 207.288 232.432 207.879C233.2 208.323 233.974 208.818 234.958 208.171C237.985 206.184 238.138 202.756 235.256 200.413C234.85 200.083 234.475 199.715 234.088 199.365C233.492 198.819 232.832 198.14 233.403 197.378C233.695 196.991 234.583 196.966 235.212 196.953C236.138 196.928 237.04 197.188 237.681 197.924C240.188 200.813 241.133 198.8 242.384 196.629C243.863 194.064 244.066 192.128 241.051 190.598C240.042 190.084 239.344 188.992 238.43 188.262C236.36 186.617 235.808 184.967 237.611 182.624C239.293 180.447 239.832 177.952 236.792 176.364C234.304 175.063 231.74 174.079 230.458 178.129C230.02 179.507 228.56 180.478 226.954 179.526C225.253 178.523 226.32 177.063 226.98 176.142C228.789 173.641 228.814 172.028 225.85 170.219C223.165 168.581 221.528 168.498 219.827 171.292C219.109 172.473 218.176 174.422 216.19 172.911C214.292 171.463 215.809 170.219 216.621 168.917C217.256 167.908 218.862 167.146 217.986 165.629C216.158 162.455 211.906 162.423 209.589 165.413C208.745 166.499 208.256 168.714 206.111 167.076C204.169 165.591 205.66 164.41 206.53 163.134C207.533 161.661 208.885 160.404 206.428 158.639C202.081 155.528 202.239 155.37 199.529 160.518C199.04 161.451 198.52 162.835 196.921 162.023C195.74 161.42 195.124 160.493 195.569 159.141C195.854 158.277 196.108 157.344 196.641 156.639C198.114 154.69 198.006 153.446 195.664 152.163C192.954 150.672 192.649 152.582 191.862 154.233C191.081 155.877 189.99 157.23 187.933 155.966C185.972 154.76 187.229 153.376 188.073 152.367C189.653 150.475 189.247 149.446 187.292 148.056C183.795 145.561 182.557 147.459 181.263 150.411C180.685 151.719 179.657 153.738 177.867 152.919C175.436 151.808 178 150.329 178.191 149.015C178.311 148.177 178.889 147.288 179.505 146.666C180.761 145.383 180.387 144.482 179.181 143.479C177.036 141.695 175.455 141.517 173.329 143.974C168.645 149.389 169.648 150.195 162.533 146.367C161.771 145.961 161.187 145.815 160.451 146.501C157.474 149.281 157.842 151.573 161.581 153.313C162.647 153.808 163.751 154.271 164.697 154.951C165.808 155.75 165.935 156.912 165.167 158.061C164.519 159.026 163.688 159.464 162.495 158.861C161.213 158.214 159.753 157.858 158.585 157.065C155.075 154.678 153.983 157.185 152.511 159.674C150.664 162.804 153.66 162.778 154.98 163.667C155.875 164.27 156.909 164.804 158.153 164.962C159.518 165.134 160.61 166.099 159.931 167.768C159.302 169.298 158.274 170.086 156.541 169.184C155.742 168.765 154.726 168.644 154.072 168.079C151.343 165.737 149.42 165.972 147.243 169.083C145.517 171.558 145.847 173.025 148.297 174.06C149.902 174.739 151.191 175.793 152.6 176.695C153.914 177.539 153.507 178.618 152.854 179.755C152.098 181.075 151.222 181.291 149.998 180.427C148.931 179.672 147.776 179.037 146.761 178.225C144.685 176.555 143.39 176.301 141.581 179.037C139.715 181.856 141.309 182.377 143.111 183.475C144.419 184.275 145.555 185.354 146.773 186.294C147.611 186.941 149.109 187.138 147.96 188.858C147.027 190.261 145.885 190.395 144.634 189.773C143.124 189.024 141.753 187.995 140.299 187.138C139.5 186.662 138.802 186.376 137.926 187.328C134.797 190.725 135.361 193.848 139.474 195.48C140.312 195.81 141.074 196.362 141.835 196.858C143.054 197.651 143.105 198.591 142.381 199.854C141.632 201.162 140.864 200.895 139.804 200.388C138.402 199.715 136.809 199.384 135.514 198.559C132.493 196.642 131.782 199.048 130.531 200.87C128.9 203.238 130.919 203.771 132.245 204.622C136.701 207.473 136.631 207.409 133.997 212.151C133.184 213.612 130.925 215.281 133.794 217.046C135.971 218.386 137.938 219.89 139.715 216.354C140.242 215.313 141.315 214.316 141.842 213.186C142.534 211.701 143.257 210.526 145.002 211.434C147.021 212.482 145.663 213.929 145.047 215.04C144.044 216.837 142.064 218.399 141.81 220.233C141.474 222.735 145.047 222.57 146.151 224.525C147.383 226.715 148.379 225.89 149.318 224.023C150.41 221.852 151.686 219.744 153.12 217.789C153.831 216.824 154.929 215.789 156.459 216.792C158.115 217.872 157.239 219.052 156.586 220.157C156.065 221.033 155.304 221.757 154.758 222.62C151.965 227.052 152.289 228.15 156.535 230.899C158.407 232.112 159.239 231.591 160.057 229.763C160.908 227.864 161.949 226.036 163.047 224.258C163.72 223.166 164.627 221.871 166.157 222.836C167.509 223.693 167.306 224.969 166.55 226.277C165.77 227.629 165.11 229.064 164.488 230.499C162.412 235.279 162.85 236.251 167.439 238.644C169.038 239.476 169.718 239.279 170.219 237.546C170.765 235.679 171.266 233.673 172.834 232.372C173.849 231.527 175.062 230.226 176.553 231.572C177.848 232.74 177.061 233.997 176.325 235.083C175.1 236.886 173.64 238.536 173.265 240.809C172.732 244.041 175.69 244.555 177.372 245.85C179.454 247.456 179.479 244.701 180.209 243.856C181.466 242.39 182.278 240.555 183.414 238.968C184.17 237.92 185.261 237.47 186.467 238.365C187.8 239.349 187.349 240.53 186.448 241.374C185.058 242.682 184.696 244.517 183.719 246.002C181.129 249.932 184.525 251.183 186.696 252.884C189.558 255.132 191.107 252.675 192.23 250.77C194.236 247.374 196.641 247.088 199.751 248.961C201.09 249.767 202.487 250.478 203.782 251.354C204.67 251.957 205.368 252.63 206.543 251.811C208.605 250.37 209.786 248.18 210.249 245.996C210.624 244.225 208.04 244.199 206.879 243.266C206.276 242.777 205.521 242.485 204.886 242.028C203.87 241.285 203.052 240.32 203.928 239.07C204.664 238.016 205.838 237.698 207.057 238.333C208.44 239.057 209.773 239.882 211.157 240.606C212.045 241.069 213.061 241.958 214 240.961C215.523 239.343 217.047 237.552 217.561 235.406C218.075 233.267 215.555 233.496 214.54 232.505C213.715 231.705 212.35 230.931 212.972 229.667C213.632 228.328 215.111 228.404 216.45 228.867C216.945 229.039 217.44 229.198 217.929 229.388C220.582 230.429 225.285 227.261 225.215 224.48V224.474ZM197.917 259.88C200.672 260.249 202.201 258.401 202.144 256.922C202.049 254.376 199.567 253.056 197.276 252.706C194.68 252.313 193.296 254.928 193.423 256.604C193.595 258.82 195.956 259.849 197.911 259.88H197.917ZM171.38 139.346C170.549 138.082 169.267 137.257 167.959 137.2C165.617 137.092 164.481 139.314 164.158 140.933C163.815 142.634 166.138 144.132 167.458 143.98C169.61 143.739 169.978 141.053 171.38 139.346ZM130.639 209.745C130.366 208.038 128.869 207.574 127.802 207.485C125.473 207.282 124.908 209.637 124.546 211.117C124.242 212.374 126.209 213.034 127.39 213.078C129.503 213.161 129.643 210.964 130.639 209.745ZM241.508 184.643C242.593 186.167 243.742 187.855 245.71 188.211C247.22 188.484 248.179 186.852 248.052 185.69C247.81 183.468 245.57 182.808 243.856 182.186C242.39 181.653 242.314 183.494 241.508 184.643Z" fill="#ED79B7"/>
<path d="M225.209 224.474C225.285 227.255 220.582 230.416 217.929 229.375C217.44 229.185 216.945 229.026 216.45 228.855C215.111 228.391 213.632 228.315 212.972 229.655C212.35 230.918 213.708 231.693 214.54 232.492C215.562 233.483 218.081 233.254 217.561 235.394C217.04 237.546 215.523 239.33 214 240.949C213.067 241.946 212.052 241.063 211.157 240.593C209.773 239.87 208.44 239.044 207.057 238.32C205.838 237.686 204.664 238.003 203.928 239.057C203.052 240.308 203.864 241.273 204.886 242.015C205.514 242.472 206.27 242.771 206.879 243.253C208.04 244.193 210.63 244.212 210.249 245.983C209.786 248.167 208.612 250.357 206.543 251.799C205.368 252.618 204.677 251.945 203.782 251.341C202.487 250.472 201.091 249.754 199.751 248.948C196.641 247.075 194.236 247.361 192.23 250.757C191.107 252.662 189.558 255.119 186.696 252.871C184.525 251.164 181.129 249.919 183.719 245.99C184.696 244.51 185.064 242.676 186.448 241.361C187.343 240.517 187.8 239.336 186.467 238.352C185.255 237.457 184.163 237.901 183.414 238.955C182.278 240.543 181.466 242.377 180.209 243.844C179.479 244.694 179.46 247.443 177.372 245.837C175.69 244.542 172.732 244.034 173.265 240.796C173.64 238.524 175.1 236.879 176.325 235.07C177.061 233.978 177.848 232.727 176.553 231.559C175.062 230.213 173.849 231.515 172.834 232.359C171.266 233.661 170.765 235.667 170.219 237.533C169.718 239.266 169.038 239.463 167.439 238.632C162.844 236.238 162.412 235.267 164.488 230.486C165.11 229.052 165.77 227.617 166.55 226.264C167.306 224.957 167.515 223.681 166.157 222.824C164.627 221.852 163.72 223.154 163.047 224.246C161.949 226.017 160.908 227.845 160.057 229.75C159.239 231.578 158.401 232.092 156.535 230.886C152.289 228.137 151.965 227.045 154.758 222.608C155.304 221.744 156.065 221.014 156.586 220.144C157.239 219.04 158.115 217.865 156.459 216.78C154.929 215.777 153.831 216.811 153.12 217.776C151.686 219.732 150.41 221.839 149.318 224.011C148.379 225.877 147.383 226.703 146.151 224.512C145.047 222.557 141.474 222.722 141.81 220.221C142.058 218.38 144.044 216.824 145.047 215.027C145.663 213.923 147.015 212.469 145.003 211.421C143.257 210.52 142.534 211.688 141.842 213.174C141.315 214.304 140.242 215.294 139.716 216.342C137.938 219.878 135.964 218.373 133.794 217.034C130.925 215.269 133.185 213.593 133.997 212.139C136.637 207.396 136.701 207.454 132.245 204.609C130.919 203.759 128.894 203.225 130.531 200.857C131.782 199.042 132.493 196.629 135.514 198.546C136.809 199.365 138.402 199.702 139.804 200.375C140.864 200.883 141.639 201.149 142.381 199.842C143.105 198.572 143.054 197.639 141.835 196.845C141.074 196.35 140.312 195.798 139.474 195.467C135.362 193.836 134.797 190.712 137.926 187.316C138.808 186.363 139.5 186.649 140.299 187.125C141.759 187.982 143.13 189.011 144.634 189.76C145.885 190.382 147.027 190.249 147.96 188.846C149.103 187.125 147.611 186.929 146.773 186.281C145.548 185.341 144.419 184.256 143.111 183.462C141.309 182.364 139.722 181.843 141.582 179.024C143.39 176.282 144.685 176.542 146.761 178.212C147.776 179.031 148.931 179.666 149.998 180.415C151.223 181.278 152.098 181.069 152.854 179.742C153.507 178.605 153.914 177.526 152.6 176.682C151.184 175.78 149.902 174.726 148.297 174.047C145.847 173.012 145.517 171.552 147.243 169.07C149.414 165.953 151.343 165.724 154.072 168.067C154.726 168.632 155.742 168.752 156.541 169.171C158.268 170.079 159.302 169.292 159.931 167.756C160.616 166.086 159.518 165.121 158.153 164.95C156.909 164.791 155.875 164.258 154.98 163.654C153.66 162.766 150.664 162.791 152.511 159.661C153.983 157.173 155.075 154.665 158.585 157.052C159.753 157.846 161.213 158.207 162.495 158.849C163.688 159.452 164.519 159.014 165.167 158.049C165.941 156.9 165.814 155.738 164.697 154.938C163.751 154.259 162.647 153.795 161.581 153.3C157.836 151.56 157.474 149.275 160.451 146.488C161.187 145.796 161.771 145.942 162.533 146.355C169.641 150.183 168.645 149.376 173.329 143.961C175.455 141.504 177.036 141.688 179.181 143.466C180.387 144.469 180.761 145.37 179.505 146.653C178.889 147.281 178.311 148.164 178.191 149.002C178 150.316 175.436 151.789 177.867 152.906C179.657 153.725 180.685 151.706 181.263 150.399C182.557 147.453 183.801 145.555 187.292 148.043C189.241 149.434 189.647 150.462 188.073 152.354C187.235 153.357 185.978 154.747 187.933 155.954C189.99 157.217 191.081 155.865 191.862 154.22C192.649 152.57 192.954 150.659 195.664 152.151C198.006 153.44 198.114 154.678 196.641 156.627C196.108 157.331 195.848 158.265 195.569 159.128C195.124 160.474 195.74 161.407 196.921 162.01C198.52 162.823 199.04 161.439 199.529 160.506C202.239 155.357 202.081 155.516 206.428 158.626C208.891 160.385 207.533 161.648 206.53 163.121C205.66 164.397 204.169 165.578 206.111 167.064C208.256 168.702 208.751 166.486 209.589 165.4C211.906 162.404 216.158 162.442 217.986 165.616C218.862 167.14 217.256 167.895 216.622 168.905C215.809 170.206 214.292 171.451 216.19 172.898C218.177 174.409 219.11 172.46 219.827 171.279C221.534 168.486 223.172 168.568 225.85 170.206C228.814 172.022 228.789 173.634 226.98 176.13C226.313 177.05 225.253 178.504 226.954 179.513C228.56 180.466 230.02 179.501 230.458 178.117C231.74 174.066 234.304 175.057 236.792 176.352C239.832 177.939 239.286 180.44 237.611 182.611C235.802 184.954 236.354 186.605 238.43 188.249C239.35 188.979 240.042 190.071 241.051 190.585C244.066 192.115 243.863 194.052 242.384 196.616C241.133 198.788 240.188 200.8 237.681 197.912C237.04 197.169 236.138 196.915 235.212 196.94C234.59 196.953 233.695 196.985 233.403 197.366C232.832 198.121 233.492 198.807 234.088 199.353C234.475 199.708 234.85 200.07 235.256 200.4C238.138 202.743 237.985 206.171 234.958 208.158C233.968 208.806 233.2 208.304 232.432 207.866C231.416 207.282 230.458 206.596 229.493 205.93C228.281 205.098 226.992 204.87 225.971 206.051C224.631 207.587 226.612 207.936 227.183 208.711C227.951 209.752 228.814 210.907 229.912 211.466C231.708 212.38 232.038 212.977 230.87 214.894C227.856 219.821 228.002 219.916 222.664 217.592C222.067 217.332 221.49 216.964 220.868 216.837C219.706 216.608 218.316 216.386 217.707 217.643C217.028 219.052 218.386 219.751 219.325 220.354C220.753 221.274 222.289 222.017 223.781 222.83C224.466 223.198 225.241 223.477 225.215 224.468L225.209 224.474ZM231.715 191.106C231.968 189.722 230.972 188.916 229.493 188.268C226.491 186.941 223.635 185.297 221.179 183.126C218.297 180.58 216.114 181.494 213.816 183.957C210.789 187.214 209.938 191.626 207.602 195.188C205.299 198.705 207.279 200.934 209.792 202.21C211.957 203.308 213.988 204.66 216.19 205.67C221.572 208.126 222.594 207.853 225.774 202.749C228.014 199.156 231.035 195.944 231.702 191.106H231.715ZM190.618 208.273C192.237 208.558 193.969 207.911 195.137 206.508C197.536 203.619 199.758 200.578 201.947 197.524C202.83 196.293 203.28 194.674 201.624 193.779C197.232 191.411 194.153 187.328 189.749 184.986C187.267 183.665 185.28 183.653 183.084 185.748C180.914 187.824 179.923 190.446 178.61 192.966C175.43 199.048 175.297 199.137 180.907 203.346C183.738 205.466 186.34 208.253 190.618 208.279V208.273ZM171.749 201.016C172.58 199.238 171.368 198.75 170.593 197.893C167.541 194.515 163.104 193.372 159.556 190.846C157.17 189.144 155.443 189.652 153.939 191.798C151.718 194.966 149.839 198.407 147.357 201.34C145.066 204.051 146.126 205.593 148.233 207.517C152.067 211.009 156.681 212.939 161.409 214.78C163.028 215.408 163.935 214.691 164.799 213.739C168.213 209.98 171.457 206.101 171.749 201.022V201.016ZM195.696 211.206C194.166 211.193 193.125 211.758 192.706 212.672C190.682 217.097 187.273 220.551 184.696 224.576C183.287 226.779 182.754 229.363 185.82 231.14C189.279 233.153 192.617 235.356 196.095 237.336C197.409 238.086 198.837 238.117 199.777 236.46C202.43 231.788 205.66 227.509 208.897 223.236C210.56 221.04 210.605 219.421 207.856 217.948C204.112 215.942 200.031 214.494 196.787 211.586C196.438 211.275 195.829 211.244 195.696 211.199V211.206ZM190.929 168.105C191.1 166.143 189.653 165.083 188.244 164.746C184.741 163.896 182.024 161.667 178.933 160.093C177.797 159.515 176.56 159.096 175.322 158.772C174.084 158.449 173.158 158.957 172.548 160.156C170.911 163.401 169.153 166.588 167.579 169.863C166.798 171.489 165.954 173.336 167.56 174.955C170.511 177.933 173.786 180.497 177.734 182.034C178.553 182.351 179.359 182.675 180.355 182.275C183.306 181.081 190.758 171.197 190.923 168.111L190.929 168.105ZM193.125 174.701C193.366 177.101 193.588 179.57 193.88 182.034C194.172 184.465 196.229 185.684 198.006 185.303C202.093 184.44 205.978 182.669 208.846 179.431C210.287 177.806 210.332 176.276 207.913 175.139C205.095 173.819 202.442 172.143 199.707 170.644C197.847 169.629 196.464 166.429 194.306 167.673C191.945 169.032 193.461 172.231 193.131 174.701H193.125ZM183.636 210.672C183.782 206.07 182.589 205.282 179.213 206.927C177.004 208.006 174.782 209.079 172.656 210.31C165.668 214.367 165.598 215.961 172.225 220.405C173.837 221.484 175.588 222.366 177.315 223.274C179.213 224.277 180.482 223.217 180.945 221.592C182.056 217.719 182.887 213.764 183.63 210.672H183.636ZM171.228 190.807C174.319 190.896 176.115 188.992 174.751 187.151C171.964 183.386 168.981 179.748 165.846 176.269C164.1 174.339 162.12 174.58 160.743 176.987C159.512 179.132 158.395 181.354 157.1 183.462C155.589 185.925 156.522 187.36 158.89 188.319C162.933 189.95 167.331 189.792 171.228 190.801V190.807ZM202.208 202C201.154 202.051 200.475 202.368 200.043 203.111C199.415 204.197 199.783 205.193 200.519 205.987C202.125 207.72 203.388 209.676 204.708 211.625C208.148 216.71 209.957 216.678 213.619 211.771C214.089 211.142 214.54 210.495 214.921 209.815C215.53 208.723 215.251 207.492 214.279 207.054C210.249 205.232 206.117 203.613 202.208 202Z" fill="#161616"/>
<path d="M197.917 259.88C195.962 259.848 193.595 258.82 193.43 256.604C193.303 254.928 194.686 252.313 197.282 252.706C199.574 253.055 202.055 254.37 202.15 256.922C202.208 258.401 200.678 260.248 197.923 259.88H197.917Z" fill="#161616"/>
<path d="M130.639 209.745C129.643 210.964 129.503 213.155 127.39 213.078C126.216 213.034 124.242 212.374 124.546 211.117C124.908 209.637 125.473 207.288 127.802 207.485C128.869 207.574 130.366 208.038 130.639 209.745Z" fill="#161616"/>
<path d="M241.508 184.643C242.308 183.494 242.39 181.653 243.856 182.186C245.564 182.808 247.804 183.468 248.052 185.69C248.178 186.852 247.226 188.484 245.709 188.211C243.742 187.855 242.593 186.173 241.508 184.643Z" fill="#161616"/>
<path d="M231.714 191.106C231.048 195.943 228.027 199.156 225.786 202.749C222.607 207.86 221.578 208.133 216.203 205.669C214 204.66 211.963 203.314 209.805 202.209C207.291 200.933 205.311 198.705 207.615 195.188C209.951 191.62 210.801 187.208 213.829 183.957C216.12 181.494 218.31 180.58 221.191 183.126C223.648 185.297 226.504 186.941 229.506 188.268C230.985 188.922 231.975 189.722 231.727 191.106H231.714ZM217.904 186.655C217.288 186.598 216.767 187.011 216.45 187.576C214.768 190.649 213.131 193.74 211.474 196.826C211.004 197.696 211.309 198.292 212.121 198.718C214.406 199.924 216.704 201.111 218.976 202.349C220.055 202.933 220.937 202.8 221.731 201.86C223.87 199.302 225.253 196.274 226.929 193.429C227.221 192.941 227.506 192.585 226.904 192.21C223.939 190.369 220.969 188.547 217.904 186.655Z" fill="#EB5A2F"/>
<path d="M190.618 208.272C186.34 208.247 183.738 205.46 180.907 203.34C175.297 199.13 175.43 199.042 178.61 192.96C179.93 190.439 180.92 187.817 183.084 185.741C185.274 183.646 187.261 183.659 189.749 184.979C194.153 187.322 197.232 191.404 201.624 193.772C203.28 194.667 202.83 196.286 201.947 197.518C199.758 200.572 197.53 203.613 195.137 206.501C193.969 207.904 192.243 208.552 190.618 208.266V208.272ZM190.199 203.955C191.031 203.828 191.754 203.936 192.002 203.644C193.76 201.562 195.391 199.365 197.136 197.264C197.803 196.464 197.232 196.013 196.73 195.797C193.563 194.439 191.786 191.303 188.72 189.754C186.708 188.738 185.56 188.414 184.633 190.947C183.846 193.106 182.761 195.213 181.44 197.086C180.787 198.007 180.933 198.432 181.523 198.953C184.151 201.245 187.057 203.048 190.199 203.955Z" fill="#ED79B7"/>
<path d="M171.749 201.016C171.457 206.095 168.22 209.974 164.799 213.732C163.935 214.685 163.028 215.402 161.409 214.774C156.681 212.939 152.067 211.009 148.233 207.511C146.126 205.593 145.072 204.044 147.357 201.334C149.839 198.394 151.718 194.953 153.939 191.792C155.443 189.646 157.17 189.138 159.556 190.839C163.104 193.372 167.54 194.509 170.593 197.886C171.368 198.743 172.58 199.232 171.749 201.01V201.016ZM167.94 201.638C167.744 201.169 167.686 200.457 167.35 200.292C164.005 198.61 160.743 196.591 157.195 195.563C155.335 195.023 154.586 198.02 153.196 199.277C149.909 202.241 150.188 203.238 153.609 205.987C155.05 207.149 156.522 208.215 158.287 208.704C159.93 209.155 161.727 211.206 163.263 209.492C165.256 207.263 167.109 204.762 167.94 201.638Z" fill="#EB5A2F"/>
<path d="M195.696 211.206C195.835 211.25 196.438 211.282 196.787 211.593C200.031 214.501 204.112 215.942 207.856 217.954C210.598 219.427 210.56 221.046 208.897 223.243C205.66 227.509 202.43 231.794 199.777 236.467C198.837 238.124 197.409 238.086 196.095 237.343C192.624 235.368 189.279 233.159 185.82 231.147C182.754 229.363 183.287 226.785 184.696 224.582C187.273 220.563 190.681 217.103 192.706 212.678C193.125 211.764 194.166 211.199 195.696 211.212V211.206ZM195.753 216.323C195.473 216.576 194.991 216.849 194.744 217.256C192.668 220.779 190.542 224.239 187.61 227.16C186.575 228.188 187.908 228.931 188.581 229.02C191.551 229.413 193.791 231.159 196.235 232.626C197.441 233.35 199.935 233.819 199.764 231.826C199.529 229.109 201.224 227.706 202.43 226.201C204.873 223.147 205.464 221.255 201.103 219.503C199.339 218.792 197.885 217.04 195.759 216.323H195.753Z" fill="#EB5A2F"/>
<path d="M190.929 168.105C190.77 171.19 183.313 181.075 180.361 182.269C179.365 182.675 178.559 182.351 177.74 182.027C173.786 180.485 170.511 177.926 167.566 174.949C165.96 173.33 166.804 171.489 167.585 169.857C169.159 166.581 170.917 163.401 172.555 160.15C173.158 158.95 174.091 158.449 175.328 158.766C176.566 159.09 177.803 159.509 178.94 160.087C182.024 161.655 184.741 163.889 188.251 164.74C189.653 165.083 191.107 166.143 190.935 168.098L190.929 168.105ZM178.33 177.729C179.847 177.774 180.495 177.234 182.557 174.587C185.236 171.159 184.639 168.407 180.768 166.334C175.607 163.572 175.563 163.547 173.094 168.676C172.231 170.467 170.111 172.371 173.278 174.2C175.17 175.291 176.883 176.701 178.337 177.729H178.33Z" fill="#EB5A2F"/>
<path d="M193.125 174.701C193.455 172.238 191.938 169.032 194.299 167.673C196.464 166.429 197.841 169.635 199.7 170.644C202.442 172.136 205.089 173.812 207.907 175.139C210.325 176.275 210.281 177.806 208.84 179.431C205.971 182.675 202.087 184.44 197.999 185.303C196.222 185.678 194.16 184.465 193.874 182.034C193.582 179.57 193.36 177.101 193.119 174.701H193.125Z" fill="#EDEAE4"/>
<path d="M183.636 210.672C182.894 213.764 182.062 217.713 180.952 221.592C180.488 223.217 179.219 224.277 177.321 223.274C175.601 222.366 173.843 221.484 172.231 220.405C165.605 215.961 165.668 214.367 172.662 210.31C174.789 209.079 177.004 207.999 179.219 206.927C182.589 205.282 183.782 206.076 183.643 210.672H183.636Z" fill="#EDEAE4"/>
<path d="M171.228 190.807C167.337 189.798 162.933 189.957 158.89 188.325C156.522 187.367 155.583 185.932 157.1 183.468C158.395 181.361 159.512 179.139 160.743 176.993C162.127 174.587 164.107 174.346 165.846 176.275C168.981 179.755 171.964 183.392 174.751 187.157C176.109 188.992 174.313 190.903 171.228 190.814V190.807Z" fill="#EDEAE4"/>
<path d="M202.208 202C206.124 203.619 210.249 205.231 214.279 207.054C215.251 207.492 215.53 208.723 214.92 209.815C214.54 210.494 214.089 211.142 213.619 211.771C209.957 216.678 208.148 216.71 204.708 211.624C203.388 209.675 202.125 207.72 200.519 205.987C199.783 205.193 199.415 204.19 200.043 203.111C200.475 202.368 201.16 202.044 202.208 202Z" fill="#EDEAE4"/>
<path d="M217.904 186.655C220.969 188.547 223.939 190.369 226.903 192.21C227.506 192.585 227.215 192.94 226.929 193.429C225.253 196.274 223.87 199.295 221.731 201.86C220.944 202.806 220.061 202.94 218.976 202.349C216.704 201.118 214.413 199.924 212.121 198.718C211.309 198.286 211.011 197.696 211.474 196.826C213.131 193.74 214.768 190.649 216.45 187.576C216.761 187.005 217.288 186.592 217.904 186.655Z" fill="#161616"/>
<path d="M190.199 203.955C187.051 203.048 184.151 201.245 181.523 198.953C180.933 198.438 180.787 198.013 181.44 197.086C182.761 195.213 183.846 193.099 184.633 190.947C185.56 188.414 186.708 188.738 188.72 189.754C191.786 191.303 193.569 194.439 196.73 195.797C197.225 196.013 197.796 196.464 197.136 197.264C195.391 199.365 193.76 201.556 192.002 203.644C191.754 203.936 191.031 203.828 190.199 203.955Z" fill="#161616"/>
<path d="M167.94 201.638C167.109 204.762 165.256 207.263 163.263 209.491C161.727 211.206 159.93 209.155 158.287 208.704C156.522 208.222 155.05 207.149 153.609 205.987C150.188 203.232 149.902 202.241 153.196 199.277C154.593 198.02 155.342 195.023 157.195 195.563C160.743 196.591 164.005 198.61 167.35 200.292C167.68 200.457 167.744 201.168 167.94 201.638Z" fill="#161616"/>
<path d="M195.753 216.323C197.885 217.046 199.339 218.792 201.097 219.503C205.457 221.262 204.867 223.147 202.423 226.201C201.217 227.712 199.529 229.109 199.758 231.826C199.929 233.819 197.435 233.343 196.229 232.626C193.785 231.166 191.545 229.413 188.574 229.02C187.902 228.931 186.575 228.188 187.603 227.16C190.535 224.233 192.662 220.773 194.737 217.256C194.978 216.843 195.461 216.57 195.746 216.323H195.753Z" fill="#161616"/>
<path d="M178.33 177.729C176.877 176.701 175.17 175.292 173.272 174.2C170.111 172.378 172.231 170.467 173.088 168.676C175.557 163.547 175.601 163.572 180.761 166.334C184.633 168.408 185.229 171.159 182.551 174.587C180.488 177.228 179.841 177.774 178.324 177.729H178.33Z" fill="#161616"/>
<path d="M180.837 171.165C180.469 171.679 179.968 172.289 179.581 172.962C178.933 174.085 178.254 173.33 177.619 173.025C175.798 172.149 175.804 172.13 176.788 170.295C177.524 168.92 178.502 168.708 179.72 169.66C180.66 170.397 180.85 170.625 180.837 171.165Z" fill="#EDEAE4"/>
<path d="M219.75 197.619C218.627 196.927 217.535 196.254 216.45 195.582C216.228 195.442 216.336 195.315 216.444 195.131C217.059 194.09 217.567 192.979 218.348 192.039C218.64 191.69 218.963 191.645 219.357 191.861C220.188 192.312 221.033 192.75 221.87 193.194C222.169 193.353 222.277 193.569 222.105 193.886C221.496 195.016 220.899 196.153 220.284 197.277C220.169 197.486 219.979 197.638 219.75 197.613V197.619Z" fill="#EDEAE4"/>
<path d="M199.294 224.455C199.339 225.623 197.688 226.22 197.384 226.791C196.629 228.213 196.007 227.94 195.055 227.001C194.585 226.537 194.261 226.258 193.239 225.89C192.598 225.655 192.808 225.045 193.1 224.658C193.684 223.877 194.318 223.173 194.604 222.189C194.889 221.205 195.81 222.093 196.165 222.449C197.435 223.719 197.892 223.249 199.015 224.08C199.148 224.176 199.339 224.353 199.294 224.455Z" fill="#EDEAE4"/>
<path d="M159.842 205.949C158.699 205.644 157.785 204.965 156.973 204.241C156.345 203.682 157.093 203.022 157.258 202.425C157.436 201.778 157.83 201.245 158.249 200.718C159.258 199.467 159.62 199.365 160.699 200.565C161.156 201.073 162.254 201.346 162.057 202.025C161.682 203.321 160.946 204.514 160.33 205.739C160.267 205.86 160.013 205.885 159.835 205.955L159.842 205.949Z" fill="#EDEAE4"/>
<path d="M13.976 207.46C11.3928 207.822 9.13328 208.78 7.33709 208.234C5.10297 207.555 2.77998 205.987 1.35826 204.14C-0.266554 202.032 0.49508 199.486 2.41821 197.461C4.08111 195.702 5.64246 193.848 7.29901 191.982C0.831468 189.246 -0.482351 187.525 0.139651 182.262C0.812427 176.561 5.67419 176.834 9.98377 175.774C7.18476 172.028 5.39492 167.622 8.34626 163.877C12.0275 159.204 16.9083 162.499 21.6558 163.851C21.6558 158.328 21.9795 152.824 28.8913 152.163C32.5916 151.808 34.648 154.239 34.8511 158.868C38.507 155.039 41.6931 151.846 46.6818 152.601C53.3588 153.617 50.3694 159.242 51.5436 163.197C56.9258 160.74 62.5492 157.915 66.662 164.638C69.0168 168.479 67.5379 171.666 62.1113 176.041C66.7318 177.456 69.9307 179.685 69.3531 185.189C68.8517 189.995 65.2149 190.966 61.3814 192.693C65.2149 194.737 67.0746 197.442 64.9674 201.518C62.4921 206.311 60.1754 207.174 53.6762 206.158C54.2157 209.974 53.3779 214.735 51.2897 216.526C47.6593 219.63 43.7622 217.141 41.1854 215.745C35.9047 222.677 29.7926 223.554 26.0796 214.792C23.1347 216.475 20.3991 219.262 16.5783 217.027C12.7828 214.805 13.373 211.218 13.9697 207.46H13.976ZM51.6388 185.557C52.3687 177.945 47.9703 170.352 42.0359 168.778C35.1494 166.943 28.4915 167.629 22.8871 172.568C16.8512 177.888 13.8173 184.179 16.1086 192.528C18.9266 202.8 33.2073 208.59 41.5472 202.248C47.2531 197.905 51.6515 192.407 51.6388 185.557Z" fill="#EB5A2F"/>
<path d="M51.6388 185.557C51.6515 192.407 47.2531 197.905 41.5471 202.248C33.2073 208.596 18.9266 202.8 16.1086 192.528C13.8173 184.173 16.8512 177.888 22.8871 172.568C28.4851 167.629 35.1431 166.943 42.0359 168.778C47.9703 170.359 52.3687 177.945 51.6388 185.557ZM33.6071 178.986C29.4562 178.58 26.0415 181.38 25.6734 185.481C25.3751 188.814 27.952 191.518 31.684 191.791C34.6861 192.014 38.8433 187.874 39.2622 184.249C39.5859 181.456 37.3264 179.348 33.6071 178.986Z" fill="white"/>
<path d="M33.6071 178.986C37.3201 179.348 39.5859 181.456 39.2622 184.249C38.8433 187.874 34.6861 192.014 31.684 191.792C27.952 191.519 25.3751 188.814 25.6734 185.481C26.0415 181.38 29.4562 178.58 33.6071 178.986Z" fill="black"/>
</g>
<defs>
<clipPath id="clip0_69_125">
<rect width="259" height="270" fill="white"/>
</clipPath>
</defs>
</svg>
