<svg width="170" height="164" viewBox="0 0 170 164" fill="none" xmlns="http://www.w3.org/2000/svg">
<g clip-path="url(#clip0_69_50)">
<path d="M88.0506 164C76.7643 164 66.2744 161.934 56.4611 157.875C46.2885 153.672 36.086 148.926 28.4222 141.285C20.7583 133.644 16.1959 123.394 11.9748 113.251C7.90337 103.467 4.10138 93.0858 4.10138 81.8328C4.10138 70.5799 6.99329 59.8225 11.0647 50.0381C15.2798 39.8956 21.9498 31.2097 29.6137 23.5684C37.2775 15.9272 46.5879 10.7216 56.7605 6.51296C66.5738 2.45952 76.7703 0 88.0506 0C99.3308 0 110.186 0.877548 119.999 4.93695C130.172 9.13963 139.339 15.4138 147.008 23.055C154.672 30.6963 159.732 40.3493 163.953 50.4918C168.024 60.2762 170.006 70.5859 170.006 81.8328C170.006 93.0798 169.293 103.915 165.222 113.699C161.007 123.842 153.499 131.793 145.835 139.435C138.171 147.076 129.687 153.344 119.514 157.553C109.701 161.612 99.3428 163.994 88.0566 163.994L88.0506 164Z" fill="#F4EDE0"/>
<path d="M111.521 105.139C111.653 105.67 111.904 105.813 112.419 105.873C113.713 106.022 115.03 106.124 116.281 106.464C117.946 106.918 119.484 107.7 120.772 108.9C121.742 109.801 121.921 110.965 121.047 111.89C120.448 112.523 120.377 113.072 120.772 113.771C120.832 113.884 120.879 114.004 120.915 114.129C121.406 115.878 120.191 117.621 118.227 117.251C117.682 117.15 117.185 116.762 116.604 116.469C116.533 116.63 116.449 116.809 116.371 116.983C115.994 117.765 115.461 118.385 114.533 118.433C113.928 118.463 113.808 118.732 113.742 119.293C113.539 120.964 113.222 122.624 112.988 124.289C112.952 124.558 113.03 125 113.216 125.125C114.096 125.698 115.024 126.206 115.946 126.707C116.509 127.012 117.024 126.946 117.443 126.415C118.059 125.627 118.67 124.833 119.305 124.057C120.424 122.69 121.466 121.239 122.718 119.997C124.334 118.397 126.693 118.845 127.513 120.833C128.076 122.2 128.286 123.663 128.046 125.143C127.747 126.982 127.418 128.82 127.058 130.647C126.597 133.005 125.663 135.136 124.017 136.933C123.185 137.841 122.269 138.7 121.077 138.951C119.454 139.297 117.784 139.494 116.119 139.572C113.317 139.709 110.509 139.691 107.701 139.763C103.995 139.858 100.295 139.978 96.5886 140.073C95.4331 140.103 94.2775 140.109 93.1219 140.103C92.601 140.103 92.3256 140.282 92.2597 140.843C92.1939 141.423 92.0681 142.014 91.8586 142.557C91.4395 143.649 90.6551 144.491 89.4876 144.664C87.7153 144.921 85.9131 145.13 84.1229 145.118C81.1471 145.1 78.1774 144.963 75.2256 144.455C71.9445 143.888 68.7592 142.993 65.6697 141.805C62.6581 140.646 59.8979 138.975 57.3772 136.963C56.06 135.913 54.8146 134.742 53.647 133.525C52.8567 132.701 52.222 131.71 51.5814 130.755C51.2162 130.211 50.9886 130.247 50.5216 130.665C48.9589 132.074 47.3902 133.477 45.7437 134.778C42.1812 137.596 37.9541 138.635 33.5414 138.933C31.6613 139.059 29.7394 138.891 27.8653 138.671C26.0332 138.456 24.207 138.097 22.4288 137.62C20.2434 137.029 18.3574 137.077 16.4893 138.665C14.1362 140.664 11.5018 142.27 8.37637 142.921C6.96335 143.213 5.14318 142.24 4.83184 140.838C4.5624 139.614 5.0414 138.629 5.81377 137.739C6.07123 137.441 6.3227 137.136 6.65799 136.742C6.26881 136.712 6.04129 136.712 5.81976 136.671C4.68814 136.468 3.51461 136.396 2.44886 136.02C0.161672 135.214 -1.04179 132.48 1.15558 130.283C2.37102 129.065 3.85589 128.558 5.53236 128.492C6.19098 128.468 6.84959 128.492 7.49623 128.492C7.15495 127.782 6.81965 127.125 6.52028 126.456C5.94549 125.167 6.53226 123.549 7.80757 122.916C8.90326 122.373 10.0289 122.54 11.0767 123C13.7231 124.164 15.8247 126.027 17.6029 128.283C17.8484 128.6 18.1538 128.946 18.513 129.083C20.5727 129.871 22.6324 130.695 24.7459 131.31C26.6379 131.859 28.6138 132.092 30.5297 132.558C32.6014 133.065 34.6251 133.077 36.6907 132.534C39.5108 131.793 41.9896 130.486 44.1151 128.48C45.9473 126.755 47.3064 124.672 48.6595 122.582C48.8332 122.313 48.9469 121.961 48.9649 121.645C49.1325 118.553 49.4619 115.484 50.1444 112.458C51.0305 108.512 51.7909 104.536 52.713 100.596C53.3656 97.8078 54.1859 95.0498 54.9703 92.2918C55.7067 89.7129 56.4611 87.134 57.2754 84.5789C57.6167 83.5103 58.1855 82.5194 58.5447 81.4627C59.6464 78.2451 60.6822 75.0035 61.7719 71.7799C62.8916 68.4607 64.0651 65.1535 65.1488 61.8224C65.5979 60.4434 65.8972 59.0047 66.2086 57.5839C66.5199 56.1571 66.8313 54.7244 67.0169 53.2797C67.2145 51.6918 67.4899 50.1516 68.382 48.7845C68.5197 48.5756 68.6694 48.3308 68.6934 48.092C68.9269 45.6683 69.2442 43.2386 69.328 40.809C69.4418 37.4241 69.4059 34.0274 69.3639 30.6366C69.334 27.7293 69.4957 24.846 69.9866 21.9805C70.1782 20.8761 70.6632 19.8911 71.8427 19.5389C72.9444 19.2105 73.9383 19.4672 74.6867 20.3806C75.2076 21.0134 75.7465 21.6522 76.1596 22.3506C77.7583 25.0668 79.2431 27.8487 80.255 30.8515C80.3388 31.0962 80.4765 31.3231 80.5903 31.5559C80.7999 31.2634 80.8478 31.0186 80.9016 30.7739C81.3806 28.6009 81.7698 26.41 82.3566 24.2669C82.9673 22.0402 84.1049 20.106 86.1526 18.8464C87.4519 18.0464 89.3858 18.4225 90.3138 19.9269C91.0802 21.1746 91.3137 22.5297 91.4814 23.9386C91.661 25.4071 91.8945 26.8757 92.1819 28.3323C92.4513 29.7053 92.7926 31.0604 93.1519 32.4156C93.8883 35.1795 94.5769 37.9554 95.445 40.6776C95.9959 42.4089 96.4749 42.6656 98.295 42.5879C100.882 42.4805 103.762 44.4983 104.636 46.9458C104.875 47.6204 105.019 48.3308 105.3 48.9875C106.007 50.6351 106.677 52.3783 106.288 54.1155C105.869 55.978 106.995 56.372 108.192 56.9153C108.264 56.9451 108.342 56.9571 108.414 56.9929C110.557 57.9898 112.719 58.939 114.832 60.0016C117.634 61.4105 120.005 63.3984 122.263 65.5654C125.945 69.0935 127.969 73.4514 128.693 78.3764C129.184 81.7314 128.968 85.0923 127.897 88.4055C126.951 91.3187 125.472 93.8559 123.34 95.9811C120.999 98.3152 118.269 100.142 115.126 101.288C113.683 101.813 112.252 102.381 110.755 102.954C111.03 103.712 111.348 104.422 111.533 105.157L111.521 105.139ZM86.3861 25.0668C85.8113 27.5622 85.2665 30.0695 84.7456 32.5827C84.4103 34.1945 83.6738 35.5735 82.4883 36.7018C80.9675 38.1465 79.0635 37.9017 78.1355 36.0392C77.2673 34.296 76.5967 32.4573 75.8124 30.6724C75.2735 29.4546 74.6927 28.2547 74.1179 27.0488C74.0461 26.8995 73.9323 26.7801 73.8365 26.6428L73.627 26.6727C73.5072 33.0066 73.3875 39.3345 73.2677 45.6982C73.2498 45.6982 73.3815 45.7161 73.4713 45.6624C74.9023 44.8147 76.4889 44.5042 78.1055 44.3072C80.7999 43.9789 83.9073 46.3071 84.5001 48.9457C84.7575 50.0799 85.3383 51.1425 85.7455 52.2469C86.4879 54.2528 86.6615 56.3004 86.0269 58.3719C85.0808 61.4642 82.8176 63.2611 79.4587 63.5715C75.6806 63.9237 72.4894 62.873 70.2441 59.6315C70.2082 59.5778 70.1124 59.5658 69.9447 59.4822C69.813 60.0434 69.7052 60.5807 69.5675 61.1C68.3461 65.6907 66.8792 70.2039 65.0889 74.6095C64.4543 76.1736 64.0292 77.8212 63.4664 79.4211C62.7419 81.4747 61.9037 83.4924 61.2391 85.5639C60.311 88.4712 59.4309 91.3963 58.6405 94.3454C57.455 98.7809 56.2695 103.222 55.2696 107.706C54.4493 111.383 53.8147 115.114 53.2938 118.845C53.0423 120.654 53.0243 122.564 53.3058 124.361C53.7967 127.495 55.6349 129.967 57.934 132.08C61.8318 135.662 66.3583 138.085 71.4895 139.459C75.3992 140.509 79.3689 141.017 83.3984 141.035C84.7575 141.035 86.1167 140.826 87.4698 140.706C87.9608 140.664 88.1943 140.396 88.2063 139.894C88.2841 135.99 88.3739 132.092 88.4577 128.188C88.4577 127.991 88.3979 127.794 88.3679 127.597C88.3021 127.573 88.2302 127.549 88.1644 127.531C87.6973 128.57 87.2363 129.608 86.7573 130.635C85.8173 132.659 84.8833 134.683 83.9073 136.695C83.59 137.351 83.1769 137.978 82.2548 137.769C81.3866 137.572 80.6741 136.724 80.6502 135.829C80.6442 135.572 80.6622 135.316 80.6921 135.059C80.9136 133.107 80.1592 131.728 78.3929 130.802C76.7224 129.925 74.9502 129.835 73.13 130.026C71.9505 130.152 71.0524 129.549 70.8787 128.534C70.6812 127.412 71.25 126.498 72.4175 126.242C74.1838 125.848 75.9561 125.997 77.6984 126.433C79.6084 126.91 81.3028 127.788 82.6619 129.244C82.7278 129.316 82.8176 129.352 83.0032 129.477C83.3984 128.6 83.7097 127.728 84.1708 126.946C84.7935 125.895 85.4581 124.845 86.2544 123.925C86.6795 123.436 87.392 123.096 88.0326 122.922C90.3498 122.302 91.9005 123.346 92.11 125.776C92.3136 128.2 92.3376 130.647 92.3735 133.083C92.3855 133.775 92.5771 134.026 93.2776 134.056C96.9718 134.229 100.337 133.298 103.217 130.97C105.767 128.91 107.935 126.504 108.941 123.298C109.767 120.66 109.917 117.932 109.605 115.21C109.21 111.705 108.324 108.297 107.102 104.983C107.067 104.888 107.031 104.792 106.989 104.697C106.42 103.425 106.42 103.419 105.049 103.592C100.277 104.189 95.5588 104.082 90.8587 102.93C84.8593 101.455 80.1951 98.1123 76.5728 93.2052C73.5072 89.0502 72.0223 84.3282 71.5972 79.242C71.5074 78.1854 72.2858 77.272 73.3396 77.1466C74.3395 77.0272 75.2436 77.7078 75.4471 78.7704C75.5848 79.4748 75.6747 80.1912 75.7585 80.9016C76.3872 86.3579 78.9378 90.8053 82.9254 94.5006C86.0688 97.4138 89.8408 98.9898 94.038 99.6345C100.319 100.602 106.48 100.029 112.467 97.9511C115.94 96.7452 119.053 94.9006 121.4 91.9873C124.22 88.4891 125.053 84.4237 124.717 80.0479C124.167 72.7649 120.029 67.81 114.036 64.252C111.06 62.491 107.809 61.1896 104.666 59.733C104.456 59.6375 103.965 59.8882 103.744 60.121C101.852 62.097 99.5344 62.9387 96.876 62.4193C93.2956 61.7209 90.8766 59.524 89.7989 56.0556C88.7391 52.6469 88.9846 49.2979 90.9305 46.2116C91.2898 45.6444 91.9125 45.2385 92.3615 44.7191C92.5112 44.546 92.6429 44.146 92.5471 43.9968C91.1521 41.8059 90.5414 39.3285 89.9366 36.869C89.1104 33.502 88.4278 30.1053 87.7093 26.7145C87.4998 25.7235 87.392 24.7146 87.2363 23.7177C87.1645 23.6998 87.0926 23.6878 87.0208 23.6699C86.8052 24.1356 86.4939 24.5833 86.3861 25.0728V25.0668ZM107.617 135.698C111.222 135.56 114.82 135.327 118.425 135.28C120.167 135.256 121.215 134.295 121.897 133.005C123.185 130.576 123.64 127.877 123.843 125.149C123.843 125.137 123.807 125.119 123.694 125.036C123.55 125.209 123.394 125.388 123.25 125.573C122.275 126.797 121.376 128.092 120.317 129.238C118.311 131.417 116.491 131.68 113.892 130.307C113.186 129.937 112.521 129.489 111.809 129.131C111.629 129.041 111.21 129.071 111.12 129.203C109.414 131.626 107.378 133.704 104.917 135.363C104.863 135.399 104.845 135.495 104.743 135.704C105.779 135.704 106.695 135.733 107.611 135.704L107.617 135.698ZM72.8546 52.9514C72.1421 57.1242 74.4712 60.2404 78.9797 59.6972C81.8477 59.3569 83.2307 56.975 82.3147 54.199C82.0393 53.3752 81.2669 53.4051 80.734 53.423C77.9678 53.5245 76.0698 52.2887 74.8364 49.9008C74.8185 49.865 74.7526 49.8471 74.6089 49.7576C73.6749 50.653 73.0761 51.7156 72.8606 52.9454L72.8546 52.9514ZM93.7566 48.9994C92.8824 51.3575 92.7447 53.7215 93.9542 56.0019C95.1936 58.3361 98.0615 59.3808 100.031 58.157C101.834 57.0406 102.289 55.202 102.247 53.2021C102.247 53.023 102.193 52.8439 102.181 52.6648C102.139 52.038 101.846 51.8828 101.211 51.9485C99.1093 52.1693 97.1514 51.7574 95.5827 50.2352C95.0618 49.7277 94.6906 49.0711 94.1577 48.3547C94.008 48.5875 93.8404 48.7726 93.7566 48.9935V48.9994Z" fill="#161616"/>
<path d="M69.4777 108.404C68.4479 108.458 67.5857 108.488 66.7235 108.547C66.4182 108.571 66.1128 108.625 65.8194 108.714C63.8376 109.294 63.3646 110.774 64.6399 112.38C64.6698 112.416 64.6639 112.475 64.6938 112.643C63.9873 112.792 63.2748 112.911 62.5683 113.09C61.3229 113.407 60.0715 113.711 58.8501 114.099C57.5568 114.505 56.9641 115.615 57.3652 116.714C57.7784 117.836 58.7842 118.224 60.0835 117.794C60.9098 117.52 61.754 117.269 62.5982 117.054C65.2027 116.398 67.8072 116.039 70.4058 117.108C70.7111 117.233 71.0524 117.293 71.3817 117.335C72.8965 117.52 74.076 116.302 73.8665 114.762C73.8246 114.439 73.7228 114.129 73.609 113.645C74.8664 113.986 76.1118 114.338 77.0638 113.293C78.0876 112.165 77.4829 111.061 76.7464 109.956C77.1895 109.896 77.5368 109.867 77.872 109.795C78.6205 109.628 79.0995 109.15 79.2671 108.41C79.4407 107.652 79.2491 106.947 78.6085 106.482C75.513 104.243 72.1481 102.56 68.3341 101.951C66.484 101.652 65.2147 102.697 65.5141 104.291C65.6218 104.882 66.1128 105.461 66.5679 105.903C67.2804 106.595 68.1186 107.168 68.8969 107.801C69.0826 107.95 69.2263 108.147 69.4837 108.416L69.4777 108.404Z" fill="#161616"/>
<path d="M118.73 112.625C123.185 104.846 131.83 99.7122 140.722 99.3062C141.692 99.2644 142.332 98.5242 142.332 97.5272C142.332 96.59 141.704 95.9632 140.734 96.005C132.818 96.3631 125.023 99.5569 119.64 105.36C118.113 107.007 117.06 109.049 115.946 111.001C114.832 112.953 117.706 114.702 118.856 112.696C118.892 112.625 118.73 112.625 118.73 112.625Z" fill="#161616"/>
<path d="M153.774 96.4766C155.199 95.199 157.295 94.2857 156.522 92.1127C155.906 90.3755 154.085 90.0472 152.277 90.1904C152.822 88.5607 153.918 87.0205 152.187 85.6236C150.589 84.3342 149.751 84.4058 147.511 85.9579C147.242 85.0326 146.955 84.1372 146.721 83.2238C146.452 82.1731 145.775 81.3971 144.745 81.4985C143.841 81.5821 142.847 82.0239 142.159 82.6089C141.608 83.0865 141.452 84.0237 141.033 84.9431C139.925 83.97 138.866 83.0328 137.351 83.8208C135.824 84.6088 136.171 86.0833 136.111 87.3966C132.465 86.7996 131.483 88.9846 132.669 92.1485C131.675 92.7037 130.046 93.4678 130.316 95.2946C130.471 96.3512 131.86 97.6048 133.225 98.2197C131.543 100.136 131.345 101.073 132.405 102.876C133.309 104.404 134.579 104.357 136.045 103.527C135.818 105.139 135.387 106.53 136.86 107.688C138.548 109.013 139.943 108.428 141.368 107.204C141.68 109.885 142.422 111.025 144.17 111.049C147.23 111.09 147.469 108.667 147.781 106.392C149.32 106.828 150.547 108.965 152.265 106.989C153.553 105.515 153.163 103.807 152.66 101.819C154.223 102.709 155.451 102.536 156.097 101.252C157.313 98.8525 155.57 97.6048 153.756 96.4646L153.774 96.4766ZM148.781 90.7277C149.691 91.7426 150.248 93.0261 150.553 94.5125C150.242 93.0261 149.691 91.7426 148.781 90.7277C148.553 90.477 148.302 90.2382 148.032 90.0173C148.308 90.2382 148.553 90.471 148.781 90.7277ZM143.997 88.4951C143.739 88.4951 143.488 88.495 143.23 88.5249C143.488 88.501 143.739 88.4891 143.997 88.4951ZM139.656 89.9337C139.237 90.2382 138.86 90.5845 138.518 90.9665C138.854 90.5845 139.237 90.2382 139.656 89.9337ZM141.847 102.655C142.841 103.097 143.913 103.3 144.913 103.264C143.907 103.3 142.835 103.097 141.847 102.655Z" fill="#EB5A2F"/>
<path d="M147.931 95.402C147.637 93.5693 146.781 92.1963 144.859 91.6172C142.5 90.9008 139.596 92.9783 139.812 95.3901C139.955 97.0377 140.488 98.5779 141.835 99.4196C143.236 100.5 145.266 100.578 146.308 99.6106C147.517 98.4883 148.206 97.1034 147.937 95.402H147.931Z" fill="black"/>
</g>
<defs>
<clipPath id="clip0_69_50">
<rect width="170" height="164" fill="white"/>
</clipPath>
</defs>
</svg>
