<svg width="182" height="171" viewBox="0 0 182 171" fill="none" xmlns="http://www.w3.org/2000/svg">
<g clip-path="url(#clip0_69_61)">
<path d="M177.843 82.6704C177.843 71.4059 176.203 60.2668 172.148 50.4723C167.95 40.3193 161.921 30.483 154.288 22.8339C146.654 15.1847 136.421 10.159 126.289 5.94601C116.157 1.73301 105.816 0 94.5751 0C83.3339 0 72.1702 0.770889 62.402 4.82852C52.2701 9.03554 42.7821 15.4596 35.1429 23.1147C27.5096 30.7639 21.2897 40.3552 17.0854 50.5082C13.0302 60.3027 11.921 71.4118 11.921 82.6704C11.921 93.929 14.7179 104.339 18.7731 114.133C22.9714 124.287 28.2789 133.806 35.9122 141.455C43.5455 149.104 53.2004 154.04 63.3323 158.253C73.4643 162.466 83.3339 165.323 94.5751 165.323C105.816 165.323 116.658 163.799 126.432 159.741C136.206 155.684 146.535 150.043 154.168 142.393C161.802 134.744 166.799 124.549 171.003 114.396C175.208 104.243 177.849 93.941 177.849 82.6764L177.843 82.6704Z" fill="#F4EDE0"/>
<path d="M54.2858 39.8532C54.2858 43.1698 53.6417 46.2354 52.0972 48.9186C50.5526 51.6018 48.4415 54.3148 45.6804 55.9104C42.9193 57.506 39.7408 58.3844 36.4311 58.3844C33.1213 58.3844 29.8712 57.4283 27.1996 55.8805C24.5279 54.3328 22.5182 51.5958 20.92 48.829C19.3218 46.0621 18.2662 43.1758 18.2662 39.8532C18.2662 36.5306 19.292 33.5128 20.8365 30.8356C22.381 28.1584 24.6651 25.8278 27.4262 24.2322C30.1873 22.6367 33.1153 21.6148 36.4251 21.6148C39.7348 21.6148 43.0148 22.2303 45.6924 23.778C48.37 25.3258 50.8866 27.8058 52.4848 30.5726C54.083 33.3395 54.2858 36.5425 54.2858 39.8592V39.8532Z" fill="#212121"/>
<path d="M36.7351 91.2458C36.7351 94.5625 36.1567 97.8014 34.6062 100.479C33.0557 103.156 30.7299 105.833 27.9748 107.429C25.2196 109.024 21.9636 109.281 18.6479 109.281C15.3322 109.281 12.1775 108.672 9.49985 107.118C6.73875 105.516 4.10289 103.347 2.50467 100.58C0.95416 97.897 0 94.5624 0 91.2399C0 87.9173 1.16885 84.7022 2.71339 82.0191C4.25794 79.3359 6.57177 76.6706 9.33287 75.0751C12.094 73.4795 15.3322 73.1807 18.6479 73.1807C21.9636 73.1807 25.2793 73.5333 27.9569 75.087C30.6345 76.6408 32.9364 79.2881 34.5346 82.0549C36.1328 84.8218 36.7411 87.9232 36.7411 91.2458H36.7351Z" fill="#212121"/>
<path d="M99.0478 67.5096C99.0478 70.8262 98.5707 73.9755 97.0202 76.6587C95.4697 79.3419 92.9889 81.5649 90.2278 83.1664C87.4667 84.768 84.5207 85.6584 81.211 85.6584C77.9012 85.6584 74.6869 85.0309 72.0093 83.4831C69.3317 81.9354 67.0119 79.4195 65.4137 76.6527C63.8155 73.8859 62.8911 70.8322 62.8911 67.5156C62.8911 64.199 64.2806 61.3007 65.8252 58.6175C67.4234 55.8506 69.4331 53.4722 72.1942 51.8707C74.8718 50.317 77.8953 49.3549 81.205 49.3549C84.5148 49.3549 87.4428 50.4963 90.1204 52.044C92.7981 53.5918 95.3445 55.6475 96.9427 58.4143C98.5409 61.1811 99.0418 64.199 99.0418 67.5156L99.0478 67.5096Z" fill="#212121"/>
<path d="M105.268 74.7583C107.856 72.6907 110.647 71.2864 113.706 70.8262C116.765 70.3661 120.194 70.3302 123.164 71.4955C126.134 72.6608 128.794 74.609 130.863 77.2025C132.932 79.796 134.209 82.9334 134.662 85.999C135.115 89.0646 134.232 92.3394 133.07 95.3154C131.907 98.2914 130.308 100.915 127.72 102.988C125.132 105.062 122.138 106.138 119.079 106.592C116.02 107.046 112.788 106.711 109.818 105.546C106.848 104.381 104.23 102.72 102.161 100.126C100.091 97.5325 98.5289 94.5804 98.0757 91.5147C97.6225 88.4491 97.9803 84.9353 99.1432 81.9593C100.306 78.9833 102.68 76.826 105.268 74.7583Z" fill="#EB5A2F"/>
<path d="M152.356 55.4682C154.944 53.4005 157.83 51.8348 160.883 51.3807C163.937 50.9265 167.473 51.0819 170.443 52.2472C173.323 53.3766 175.637 55.8028 177.7 58.3964C179.764 60.9899 181.255 63.8523 181.714 66.912C182.185 70.0732 182.137 73.4915 180.974 76.4674C179.847 79.3538 177.838 82.1804 175.249 84.254C172.661 86.3277 169.423 87.4153 166.364 87.8754C163.304 88.3356 159.786 88.1802 156.816 87.0149C153.936 85.8854 151.598 83.4951 149.535 80.8956C147.471 78.2961 145.676 75.4754 145.217 72.4158C144.746 69.2545 145.39 65.8961 146.553 62.9201C147.716 59.9441 149.761 57.5358 152.35 55.4682H152.356Z" fill="#212121"/>
<path d="M49.7832 96.7018C52.3714 94.6341 55.2577 93.0685 58.311 92.6143C61.3643 92.1601 64.9007 92.3155 67.8705 93.4808C70.7509 94.6102 73.0647 97.0364 75.1281 99.63C77.1915 102.224 78.6823 105.086 79.1415 108.146C79.6127 111.307 79.5649 114.725 78.4021 117.701C77.275 120.587 75.2653 123.414 72.6771 125.488C70.0889 127.561 66.8508 128.649 63.7915 129.109C60.7322 129.569 57.2138 129.414 54.2439 128.249C51.3636 127.119 49.0259 124.729 46.9625 122.129C44.8991 119.53 43.1041 116.709 42.6449 113.649C42.1738 110.488 42.8179 107.13 43.9808 104.154C45.1436 101.178 47.1891 98.7695 49.7773 96.7018H49.7832Z" fill="#212121"/>
<path d="M118.346 18.7463C120.934 16.6787 123.689 15.0891 126.748 14.6349C129.807 14.1808 133.093 14.7365 136.057 15.9018C139.021 17.0671 141.562 18.8181 143.625 21.4176C145.688 24.0171 147.203 26.9214 147.662 29.987C148.121 33.0526 147.603 36.435 146.446 39.411C145.289 42.387 143.476 45.0163 140.888 47.084C138.3 49.1517 135.169 49.8747 132.115 50.3289C128.961 50.801 125.848 50.7114 122.878 49.5461C119.998 48.4166 117.362 46.6478 115.298 44.0542C113.235 41.4607 112.299 38.4548 111.839 35.3952C111.38 32.3355 111.392 29.0547 112.555 26.0788C113.718 23.1028 115.763 20.826 118.352 18.7583L118.346 18.7463Z" fill="#212121"/>
<path d="M100.753 25.6784C100.753 28.995 100.348 32.1921 98.8032 34.8753C97.2587 37.5584 94.8255 39.9727 92.0704 41.5742C89.3153 43.1758 86.2262 43.7256 82.9105 43.7256C79.5948 43.7256 76.6369 42.7694 73.9593 41.2157C71.1982 39.6141 68.5563 37.672 66.9581 34.9051C65.3599 32.1383 65.2526 28.995 65.2526 25.6784C65.2526 22.3618 65.4672 19.1647 67.0178 16.4815C68.5683 13.7983 70.9358 11.2825 73.6969 9.68093C76.458 8.07939 79.6007 7.33838 82.9105 7.33838C86.2202 7.33838 89.0589 8.81442 91.7305 10.3622C94.4021 11.9099 97.2944 13.6609 98.8927 16.4277C100.491 19.1945 100.759 22.3558 100.759 25.6724L100.753 25.6784Z" fill="#212121"/>
<path d="M103.854 148.71C104.647 151.931 105.017 155.134 104.153 158.104C103.288 161.074 101.511 164.008 99.2088 166.225C96.9844 168.371 94.0444 169.715 90.8301 170.504C87.6157 171.293 84.5087 171.078 81.5389 170.217C78.4796 169.327 75.4502 168.072 73.2377 165.771C71.0968 163.542 70.1665 160.447 69.3793 157.22C68.5922 153.993 68.0376 150.843 68.8963 147.867C69.7551 144.891 71.4606 141.879 73.7625 139.668C76.0644 137.457 78.9329 135.981 82.1472 135.187C85.3615 134.392 88.4685 135.145 91.4324 136.011C94.3962 136.878 97.6225 137.882 99.8349 140.182C102.047 142.483 103.061 145.489 103.854 148.71Z" fill="#212121"/>
<path d="M146.791 126.002C147.585 129.223 147.954 132.426 147.09 135.396C146.225 138.366 144.448 141.3 142.146 143.517C139.922 145.662 136.982 147.007 133.767 147.796C130.553 148.584 127.446 148.369 124.476 147.509C121.417 146.618 118.387 145.363 116.175 143.063C114.034 140.834 113.104 137.738 112.316 134.511C111.529 131.284 110.975 128.135 111.833 125.159C112.692 122.183 114.398 119.171 116.7 116.96C119.002 114.749 121.87 113.273 125.084 112.478C128.299 111.683 131.406 112.436 134.37 113.303C137.333 114.169 140.56 115.173 142.772 117.474C144.985 119.775 145.998 122.781 146.791 126.002Z" fill="#212121"/>
</g>
<defs>
<clipPath id="clip0_69_61">
<rect width="182" height="171" fill="white"/>
</clipPath>
</defs>
</svg>
