<svg width="168" height="165" viewBox="0 0 168 165" fill="none" xmlns="http://www.w3.org/2000/svg">
<g clip-path="url(#clip0_69_75)">
<path d="M168 81.7801C168 70.518 166.15 59.1842 162.098 49.3978C157.896 39.247 149.624 31.3845 141.985 23.731C134.346 16.0836 126.057 8.84238 115.917 4.63627C105.777 0.43017 95.2438 0 84 0C72.7562 0 61.6497 0.053771 51.8681 4.11649C42.0865 8.1792 32.0662 14.4884 24.4212 22.1358C16.7761 29.7833 11.3452 39.7608 7.14373 49.9116C3.08547 59.698 0 70.518 0 81.7801C0 93.0421 4.18956 103.402 8.24781 113.188C12.4493 123.339 17.0447 133.502 24.6897 141.155C32.3288 148.803 42.7251 152.818 52.8648 157.03C63.0045 161.242 72.7503 165 84 165C95.2497 165 105.646 161.798 115.428 157.735C125.567 153.529 135.51 148.642 143.149 140.994C150.788 133.347 156.136 123.584 160.337 113.433C164.395 103.641 168 93.0362 168 81.7801Z" fill="#F4EDE0"/>
<path d="M105.735 52.3194C105.932 52.6181 106.392 52.5703 106.929 52.3134C109.436 51.1245 110.773 48.3344 113.225 47.0857C116.621 45.2575 120.835 43.6802 124.654 44.893C126.242 45.825 126.128 48.6271 125.621 50.1566C124.708 52.5226 122.613 54.1237 120.763 55.7667C119.223 57.1708 117.451 58.3179 115.756 59.5307C109.794 63.6293 102.584 65.9355 97.2012 70.8705C95.3273 72.2924 93.7457 74.0669 92.4328 76.0564C91.2571 77.6576 89.8247 79.8682 87.6524 79.8085C86.035 79.6113 86.3036 76.7853 85.6949 75.5665C85.3547 73.7622 84.4833 72.1789 84.1074 70.3985C83.612 67.9131 83.4509 65.2245 82.9018 62.7092C82.3886 60.6002 81.3919 58.7301 80.998 56.6151C80.8249 55.7369 80.8429 54.8526 80.8488 53.9624C80.8727 52.5644 80.5982 51.1305 81.0517 49.8101C81.559 48.3583 83.3076 46.7989 84.8355 47.1992C85.6352 47.4322 86.2738 48.0117 86.8765 48.5793C89.401 50.8795 90.1052 54.0281 91.1198 57.0632C92.9699 61.2096 94.253 54.3448 94.6767 52.8332C95.0229 51.0827 95.5899 49.4098 96.1449 47.719C97.7682 42.9632 99.9047 38.1716 102.017 33.6011C103.611 31.0619 105.336 28.684 107.192 26.3897C109.084 24.2508 110.653 21.5444 113.034 19.8774C114.926 18.8498 117.761 16.5556 119.868 18.2404C121.628 20.0746 122.201 23.1396 121.658 25.5533C121.085 28.6601 118.561 31.1156 116.717 33.4517C114.592 35.6205 112.999 38.2911 111.387 40.8243C109.531 43.3934 107.848 46.0401 106.517 48.9378C106.141 49.9236 105.395 51.2559 105.712 52.2716L105.753 52.3373L105.735 52.3194Z" fill="#EB5A2F"/>
<path d="M85.2174 31.5099C84.0477 31.504 82.7765 31.1455 82.6631 29.8849C82.6154 28.2777 82.4542 26.7004 82.2871 25.1231C82.1976 19.3517 82.0424 13.8371 87.4495 10.3659C89.1862 9.48167 91.078 10.814 92.0747 12.3136C93.1549 14.339 92.1821 16.7348 91.6152 18.7901C90.4156 22.3091 90.6662 26.4375 88.1656 29.4069C87.2943 30.1657 86.5125 31.3486 85.3428 31.504H85.2234L85.2174 31.5099Z" fill="#EB5A2F"/>
<path d="M127.298 158.846C127.167 157.759 126.731 156.755 126.271 155.769C125.878 154.915 123.753 151.043 123.443 150.159C122.303 146.939 120.757 143.802 119.313 140.719C118.752 139.644 118.25 138.64 117.845 137.511C116.406 134.064 114.455 130.586 112.652 127.276C110.277 121.935 107.866 116.582 105.139 111.39C103.116 107.584 101.236 103.856 99.6183 99.7994C98.1024 96.5373 96.682 93.1557 93.9665 90.6882C93.0773 89.8278 92.009 89.2304 90.9288 88.6568C89.3831 87.8383 87.7598 86.8465 85.9515 86.6971C81.7619 86.7151 77.3396 87.0317 73.7648 89.3857C72.2191 90.6822 70.4824 91.9189 69.432 93.6217C67.0806 97.5828 66.3047 102.118 64.9261 106.539C63.1417 112.842 60.1338 119.079 57.7884 125.114C55.1087 132.056 52.7931 139.106 48.9616 145.487C47.028 148.534 41.794 153.236 43.7456 156.857C44.8198 158.374 45.9418 158.273 47.3682 157.257C48.7229 156.211 48.9139 154.861 50.0538 153.571C52.638 150.147 54.7626 146.473 56.541 142.565C57.5556 140.474 58.8984 138.568 59.9846 136.507C61.6079 132.767 63.5833 129.308 65.0873 125.55C67.0686 121.559 69.1933 114.449 70.9359 110.303C72.225 107.931 74.1885 99.883 77.1307 99.5126C80.073 99.1422 79.1778 105.469 79.0405 106.24C78.396 110.183 77.3933 116.564 76.4385 120.465C75.394 124.899 74.9584 129.111 73.7051 133.448C73.1739 135.498 72.4399 137.863 72.04 139.919C71.5029 142.183 70.6674 144.256 71.5685 146.473C72.3742 149.114 75.5791 148.695 76.7309 146.783C78.8794 143.043 79.2733 138.347 80.0849 134.201C81.5769 128.125 82.7108 121.834 84.2506 115.799C84.5788 113.123 84.8295 110.566 85.116 107.919C85.2413 106.371 85.3129 104.585 85.4561 103.02C85.5039 102.47 85.6292 101.926 85.8679 101.424C86.1425 100.845 86.5543 100.307 87.0794 100.128C87.8195 99.9428 88.3327 101.018 88.4521 101.711C89.4786 107.686 88.8698 113.947 89.6397 119.946C90.0814 123.626 89.6994 128.955 94.6827 129.272C97.1177 129.147 96.0912 125.592 96.0673 123.674C95.7629 121.194 95.56 118.685 95.4048 116.146C95.184 114.383 94.8438 112.651 94.3187 110.924C94.0859 110.112 93.9546 108.2 94.1396 107.363C94.5693 105.41 97.3325 104.597 98.3769 108.552C98.6514 109.58 98.7768 110.649 99.1766 111.623C101.844 118.213 104.232 121.798 106.619 127.772C107.95 131.1 109.764 134.81 111.071 138.174C112.05 140.038 112.993 142.53 113.78 144.501C114.974 147.489 115.571 148.683 116.764 151.671C117.588 153.732 119.48 158.386 120.942 160.035C124.427 163.841 127.507 163.022 127.322 158.96L127.304 158.834L127.298 158.846Z" fill="black"/>
<path d="M75.585 67.2379C74.1587 63.3724 72.0579 59.8294 69.5514 56.5554C67.6893 54.2074 66.0362 51.5666 63.5833 49.7683C60.7605 47.3067 56.6843 46.769 53.2885 48.191C50.7939 49.2963 50.4 50.7122 51.4861 53.2395C52.638 55.3545 54.124 57.35 55.9264 58.9213C58.1465 60.3253 60.092 62.1715 62.0257 63.934C62.6881 64.5016 63.094 65.2902 63.7087 65.9235C64.3771 66.6046 65.2186 67.1722 65.8333 67.931C68.1071 71.223 70.745 74.3477 73.4664 77.3051C74.1527 78.1236 74.5824 79.1632 75.3284 79.8682C77.0771 81.5709 78.5213 79.8682 79.148 78.1117C80.4132 74.4373 77.4769 70.6554 75.7939 67.5665" fill="#EB5A2F"/>
</g>
<defs>
<clipPath id="clip0_69_75">
<rect width="168" height="165" fill="white"/>
</clipPath>
</defs>
</svg>
